<?xml version="1.0" encoding="UTF-8" standalone="no"?>
<!DOCTYPE svg PUBLIC "-//W3C//DTD SVG 1.1//EN"
 "http://www.w3.org/Graphics/SVG/1.1/DTD/svg11.dtd">
<!-- Generated by graphviz version 2.38.0 (20140413.2041)
 -->
<!-- Title: G Pages: 1 -->
<svg width="2569pt" height="1328pt"
 viewBox="0.00 0.00 2569.27 1327.87" xmlns="http://www.w3.org/2000/svg" xmlns:xlink="http://www.w3.org/1999/xlink">
<g id="graph0" class="graph" transform="scale(1 1) rotate(0) translate(4 1323.87)">
<title>G</title>
<polygon fill="white" stroke="none" points="-4,4 -4,-1323.87 2565.27,-1323.87 2565.27,4 -4,4"/>
<g id="clust1" class="cluster"><title>cluster_run0</title>
<polygon fill="none" stroke="black" points="188.529,-63.8701 188.529,-570.87 2553.27,-570.87 2553.27,-63.8701 188.529,-63.8701"/>
<text text-anchor="middle" x="1370.9" y="-555.67" font-family="Times,serif" font-size="14.00">run0</text>
</g>
<g id="clust2" class="cluster"><title>cluster_run1</title>
<polygon fill="none" stroke="black" points="200.029,-642.87 200.029,-1311.87 2210.17,-1311.87 2210.17,-642.87 200.029,-642.87"/>
<text text-anchor="middle" x="1205.1" y="-1296.67" font-family="Times,serif" font-size="14.00">run1</text>
</g>
<!-- prog0 -->
<g id="node1" class="node"><title>prog0</title>
<path fill="black" stroke="black" d="M334.529,-300.87C334.529,-300.87 208.529,-300.87 208.529,-300.87 202.529,-300.87 196.529,-294.87 196.529,-288.87 196.529,-288.87 196.529,-276.87 196.529,-276.87 196.529,-270.87 202.529,-264.87 208.529,-264.87 208.529,-264.87 334.529,-264.87 334.529,-264.87 340.529,-264.87 346.529,-270.87 346.529,-276.87 346.529,-276.87 346.529,-288.87 346.529,-288.87 346.529,-294.87 340.529,-300.87 334.529,-300.87"/>
<text text-anchor="middle" x="271.529" y="-279.17" font-family="Times,serif" font-size="14.00" fill="white">/usr/local/bin/Rscript (1)</text>
</g>
<!-- prog1 -->
<g id="node2" class="node"><title>prog1</title>
<path fill="black" stroke="black" d="M936.146,-300.87C936.146,-300.87 809.146,-300.87 809.146,-300.87 803.146,-300.87 797.146,-294.87 797.146,-288.87 797.146,-288.87 797.146,-276.87 797.146,-276.87 797.146,-270.87 803.146,-264.87 809.146,-264.87 809.146,-264.87 936.146,-264.87 936.146,-264.87 942.146,-264.87 948.146,-270.87 948.146,-276.87 948.146,-276.87 948.146,-288.87 948.146,-288.87 948.146,-294.87 942.146,-300.87 936.146,-300.87"/>
<text text-anchor="middle" x="872.646" y="-279.17" font-family="Times,serif" font-size="14.00" fill="white">/usr/local/lib/R/bin/R (1)</text>
</g>
<!-- prog0&#45;&gt;prog1 -->
<g id="edge1" class="edge"><title>prog0&#45;&gt;prog1</title>
<path fill="none" stroke="black" d="M346.593,-282.87C458.238,-282.87 669.069,-282.87 786.761,-282.87"/>
<polygon fill="black" stroke="black" points="786.81,-286.37 796.81,-282.87 786.81,-279.37 786.81,-286.37"/>
<text text-anchor="middle" x="589.058" y="-286.67" font-family="Times,serif" font-size="14.00">exec</text>
</g>
<!-- prog2 -->
<g id="node3" class="node"><title>prog2</title>
<path fill="black" stroke="black" d="M1549.65,-300.87C1549.65,-300.87 1475.65,-300.87 1475.65,-300.87 1469.65,-300.87 1463.65,-294.87 1463.65,-288.87 1463.65,-288.87 1463.65,-276.87 1463.65,-276.87 1463.65,-270.87 1469.65,-264.87 1475.65,-264.87 1475.65,-264.87 1549.65,-264.87 1549.65,-264.87 1555.65,-264.87 1561.65,-270.87 1561.65,-276.87 1561.65,-276.87 1561.65,-288.87 1561.65,-288.87 1561.65,-294.87 1555.65,-300.87 1549.65,-300.87"/>
<text text-anchor="middle" x="1512.65" y="-279.17" font-family="Times,serif" font-size="14.00" fill="white">/bin/uname (2)</text>
</g>
<!-- prog1&#45;&gt;prog2 -->
<g id="edge2" class="edge"><title>prog1&#45;&gt;prog2</title>
<path fill="none" stroke="black" d="M948.396,-282.87C1076.96,-282.87 1337.31,-282.87 1453.44,-282.87"/>
<polygon fill="black" stroke="black" points="1453.56,-286.37 1463.56,-282.87 1453.56,-279.37 1453.56,-286.37"/>
<text text-anchor="middle" x="1156.23" y="-286.67" font-family="Times,serif" font-size="14.00">fork+exec</text>
</g>
<!-- prog3 -->
<g id="node4" class="node"><title>prog3</title>
<path fill="black" stroke="black" d="M1576.15,-454.87C1576.15,-454.87 1449.15,-454.87 1449.15,-454.87 1443.15,-454.87 1437.15,-448.87 1437.15,-442.87 1437.15,-442.87 1437.15,-430.87 1437.15,-430.87 1437.15,-424.87 1443.15,-418.87 1449.15,-418.87 1449.15,-418.87 1576.15,-418.87 1576.15,-418.87 1582.15,-418.87 1588.15,-424.87 1588.15,-430.87 1588.15,-430.87 1588.15,-442.87 1588.15,-442.87 1588.15,-448.87 1582.15,-454.87 1576.15,-454.87"/>
<text text-anchor="middle" x="1512.65" y="-433.17" font-family="Times,serif" font-size="14.00" fill="white">/usr/local/lib/R/bin/R (3)</text>
</g>
<!-- prog1&#45;&gt;prog3 -->
<g id="edge3" class="edge"><title>prog1&#45;&gt;prog3</title>
<path fill="none" stroke="black" d="M948.396,-300.913C1067.9,-329.758 1301.26,-386.085 1426.83,-416.396"/>
<polygon fill="black" stroke="black" points="1426.25,-419.856 1436.79,-418.8 1427.89,-413.051 1426.25,-419.856"/>
<text text-anchor="middle" x="1156.23" y="-359.67" font-family="Times,serif" font-size="14.00">fork</text>
</g>
<!-- prog7 -->
<g id="node8" class="node"><title>prog7</title>
<path fill="black" stroke="black" d="M1590.15,-215.87C1590.15,-215.87 1435.15,-215.87 1435.15,-215.87 1429.15,-215.87 1423.15,-209.87 1423.15,-203.87 1423.15,-203.87 1423.15,-191.87 1423.15,-191.87 1423.15,-185.87 1429.15,-179.87 1435.15,-179.87 1435.15,-179.87 1590.15,-179.87 1590.15,-179.87 1596.15,-179.87 1602.15,-185.87 1602.15,-191.87 1602.15,-191.87 1602.15,-203.87 1602.15,-203.87 1602.15,-209.87 1596.15,-215.87 1590.15,-215.87"/>
<text text-anchor="middle" x="1512.65" y="-194.17" font-family="Times,serif" font-size="14.00" fill="white">/usr/local/lib/R/bin/exec/R (1)</text>
</g>
<!-- prog1&#45;&gt;prog7 -->
<g id="edge7" class="edge"><title>prog1&#45;&gt;prog7</title>
<path fill="none" stroke="black" d="M948.396,-272.911C1063.57,-257.567 1284.51,-228.131 1412.78,-211.042"/>
<polygon fill="black" stroke="black" points="1413.55,-214.472 1423,-209.682 1412.62,-207.533 1413.55,-214.472"/>
<text text-anchor="middle" x="1156.23" y="-252.67" font-family="Times,serif" font-size="14.00">exec</text>
</g>
<!-- prog4 -->
<g id="node5" class="node"><title>prog4</title>
<path fill="black" stroke="black" d="M2187.17,-431.87C2187.17,-431.87 2060.17,-431.87 2060.17,-431.87 2054.17,-431.87 2048.17,-425.87 2048.17,-419.87 2048.17,-419.87 2048.17,-407.87 2048.17,-407.87 2048.17,-401.87 2054.17,-395.87 2060.17,-395.87 2060.17,-395.87 2187.17,-395.87 2187.17,-395.87 2193.17,-395.87 2199.17,-401.87 2199.17,-407.87 2199.17,-407.87 2199.17,-419.87 2199.17,-419.87 2199.17,-425.87 2193.17,-431.87 2187.17,-431.87"/>
<text text-anchor="middle" x="2123.67" y="-410.17" font-family="Times,serif" font-size="14.00" fill="white">/usr/local/lib/R/bin/R (4)</text>
</g>
<!-- prog3&#45;&gt;prog4 -->
<g id="edge4" class="edge"><title>prog3&#45;&gt;prog4</title>
<path fill="none" stroke="black" d="M1588.33,-434.05C1702.06,-429.755 1918.05,-421.598 2037.65,-417.081"/>
<polygon fill="black" stroke="black" points="2038,-420.57 2047.86,-416.695 2037.73,-413.575 2038,-420.57"/>
<text text-anchor="middle" x="1869.07" y="-428.67" font-family="Times,serif" font-size="14.00">fork</text>
</g>
<!-- prog5 -->
<g id="node6" class="node"><title>prog5</title>
<path fill="black" stroke="black" d="M2151.17,-485.87C2151.17,-485.87 2096.17,-485.87 2096.17,-485.87 2090.17,-485.87 2084.17,-479.87 2084.17,-473.87 2084.17,-473.87 2084.17,-461.87 2084.17,-461.87 2084.17,-455.87 2090.17,-449.87 2096.17,-449.87 2096.17,-449.87 2151.17,-449.87 2151.17,-449.87 2157.17,-449.87 2163.17,-455.87 2163.17,-461.87 2163.17,-461.87 2163.17,-473.87 2163.17,-473.87 2163.17,-479.87 2157.17,-485.87 2151.17,-485.87"/>
<text text-anchor="middle" x="2123.67" y="-464.17" font-family="Times,serif" font-size="14.00" fill="white">/bin/sed (5)</text>
</g>
<!-- prog3&#45;&gt;prog5 -->
<g id="edge5" class="edge"><title>prog3&#45;&gt;prog5</title>
<path fill="none" stroke="black" d="M1588.33,-440.671C1714.82,-447.11 1967.81,-459.987 2073.99,-465.392"/>
<polygon fill="black" stroke="black" points="2073.93,-468.894 2084.1,-465.907 2074.29,-461.903 2073.93,-468.894"/>
<text text-anchor="middle" x="1869.07" y="-460.67" font-family="Times,serif" font-size="14.00">fork+exec</text>
</g>
<!-- prog6 -->
<g id="node7" class="node"><title>prog6</title>
<path fill="black" stroke="black" d="M2151.17,-539.87C2151.17,-539.87 2096.17,-539.87 2096.17,-539.87 2090.17,-539.87 2084.17,-533.87 2084.17,-527.87 2084.17,-527.87 2084.17,-515.87 2084.17,-515.87 2084.17,-509.87 2090.17,-503.87 2096.17,-503.87 2096.17,-503.87 2151.17,-503.87 2151.17,-503.87 2157.17,-503.87 2163.17,-509.87 2163.17,-515.87 2163.17,-515.87 2163.17,-527.87 2163.17,-527.87 2163.17,-533.87 2157.17,-539.87 2151.17,-539.87"/>
<text text-anchor="middle" x="2123.67" y="-518.17" font-family="Times,serif" font-size="14.00" fill="white">/bin/sed (6)</text>
</g>
<!-- prog3&#45;&gt;prog6 -->
<g id="edge6" class="edge"><title>prog3&#45;&gt;prog6</title>
<path fill="none" stroke="black" d="M1588.33,-447.983C1668.91,-459.898 1801.02,-479.214 1915.07,-494.87 1969.46,-502.336 2031.94,-510.391 2074.03,-515.741"/>
<polygon fill="black" stroke="black" points="2073.64,-519.221 2084,-517.007 2074.52,-512.276 2073.64,-519.221"/>
<text text-anchor="middle" x="1869.07" y="-496.67" font-family="Times,serif" font-size="14.00">fork+exec</text>
</g>
<!-- prog11 -->
<g id="node9" class="node"><title>prog11</title>
<path fill="black" stroke="black" d="M2151.67,-107.87C2151.67,-107.87 2095.67,-107.87 2095.67,-107.87 2089.67,-107.87 2083.67,-101.87 2083.67,-95.8701 2083.67,-95.8701 2083.67,-83.8701 2083.67,-83.8701 2083.67,-77.8701 2089.67,-71.8701 2095.67,-71.8701 2095.67,-71.8701 2151.67,-71.8701 2151.67,-71.8701 2157.67,-71.8701 2163.67,-77.8701 2163.67,-83.8701 2163.67,-83.8701 2163.67,-95.8701 2163.67,-95.8701 2163.67,-101.87 2157.67,-107.87 2151.67,-107.87"/>
<text text-anchor="middle" x="2123.67" y="-86.1701" font-family="Times,serif" font-size="14.00" fill="white">/bin/sh (10)</text>
</g>
<!-- prog7&#45;&gt;prog11 -->
<g id="edge8" class="edge"><title>prog7&#45;&gt;prog11</title>
<path fill="none" stroke="black" d="M1594.46,-179.838C1675.31,-162.205 1803.38,-135.38 1915.07,-116.87 1969.07,-107.923 2031.37,-100.159 2073.52,-95.2828"/>
<polygon fill="black" stroke="black" points="2073.99,-98.7526 2083.52,-94.1364 2073.19,-91.7982 2073.99,-98.7526"/>
<text text-anchor="middle" x="1869.07" y="-132.67" font-family="Times,serif" font-size="14.00">fork+exec</text>
</g>
<!-- prog13 -->
<g id="node11" class="node"><title>prog13</title>
<path fill="black" stroke="black" d="M2151.67,-161.87C2151.67,-161.87 2095.67,-161.87 2095.67,-161.87 2089.67,-161.87 2083.67,-155.87 2083.67,-149.87 2083.67,-149.87 2083.67,-137.87 2083.67,-137.87 2083.67,-131.87 2089.67,-125.87 2095.67,-125.87 2095.67,-125.87 2151.67,-125.87 2151.67,-125.87 2157.67,-125.87 2163.67,-131.87 2163.67,-137.87 2163.67,-137.87 2163.67,-149.87 2163.67,-149.87 2163.67,-155.87 2157.67,-161.87 2151.67,-161.87"/>
<text text-anchor="middle" x="2123.67" y="-140.17" font-family="Times,serif" font-size="14.00" fill="white">/bin/sh (12)</text>
</g>
<!-- prog7&#45;&gt;prog13 -->
<g id="edge10" class="edge"><title>prog7&#45;&gt;prog13</title>
<path fill="none" stroke="black" d="M1602.21,-190.018C1732.34,-178.48 1970.88,-157.329 2073.54,-148.226"/>
<polygon fill="black" stroke="black" points="2073.98,-151.701 2083.63,-147.331 2073.36,-144.728 2073.98,-151.701"/>
<text text-anchor="middle" x="1869.07" y="-171.67" font-family="Times,serif" font-size="14.00">fork+exec</text>
</g>
<!-- prog15 -->
<g id="node13" class="node"><title>prog15</title>
<path fill="black" stroke="black" d="M2151.67,-215.87C2151.67,-215.87 2095.67,-215.87 2095.67,-215.87 2089.67,-215.87 2083.67,-209.87 2083.67,-203.87 2083.67,-203.87 2083.67,-191.87 2083.67,-191.87 2083.67,-185.87 2089.67,-179.87 2095.67,-179.87 2095.67,-179.87 2151.67,-179.87 2151.67,-179.87 2157.67,-179.87 2163.67,-185.87 2163.67,-191.87 2163.67,-191.87 2163.67,-203.87 2163.67,-203.87 2163.67,-209.87 2157.67,-215.87 2151.67,-215.87"/>
<text text-anchor="middle" x="2123.67" y="-194.17" font-family="Times,serif" font-size="14.00" fill="white">/bin/sh (14)</text>
</g>
<!-- prog7&#45;&gt;prog15 -->
<g id="edge12" class="edge"><title>prog7&#45;&gt;prog15</title>
<path fill="none" stroke="black" d="M1602.21,-197.87C1732.34,-197.87 1970.88,-197.87 2073.54,-197.87"/>
<polygon fill="black" stroke="black" points="2073.63,-201.37 2083.63,-197.87 2073.63,-194.37 2073.63,-201.37"/>
<text text-anchor="middle" x="1869.07" y="-201.67" font-family="Times,serif" font-size="14.00">fork+exec</text>
</g>
<!-- prog17 -->
<g id="node15" class="node"><title>prog17</title>
<path fill="black" stroke="black" d="M2151.67,-269.87C2151.67,-269.87 2095.67,-269.87 2095.67,-269.87 2089.67,-269.87 2083.67,-263.87 2083.67,-257.87 2083.67,-257.87 2083.67,-245.87 2083.67,-245.87 2083.67,-239.87 2089.67,-233.87 2095.67,-233.87 2095.67,-233.87 2151.67,-233.87 2151.67,-233.87 2157.67,-233.87 2163.67,-239.87 2163.67,-245.87 2163.67,-245.87 2163.67,-257.87 2163.67,-257.87 2163.67,-263.87 2157.67,-269.87 2151.67,-269.87"/>
<text text-anchor="middle" x="2123.67" y="-248.17" font-family="Times,serif" font-size="14.00" fill="white">/bin/sh (16)</text>
</g>
<!-- prog7&#45;&gt;prog17 -->
<g id="edge14" class="edge"><title>prog7&#45;&gt;prog17</title>
<path fill="none" stroke="black" d="M1602.21,-205.722C1732.34,-217.26 1970.88,-238.411 2073.54,-247.514"/>
<polygon fill="black" stroke="black" points="2073.36,-251.012 2083.63,-248.409 2073.98,-244.039 2073.36,-251.012"/>
<text text-anchor="middle" x="1869.07" y="-235.67" font-family="Times,serif" font-size="14.00">fork+exec</text>
</g>
<!-- prog22 -->
<g id="node17" class="node"><title>prog22</title>
<path fill="black" stroke="black" d="M2151.67,-323.87C2151.67,-323.87 2095.67,-323.87 2095.67,-323.87 2089.67,-323.87 2083.67,-317.87 2083.67,-311.87 2083.67,-311.87 2083.67,-299.87 2083.67,-299.87 2083.67,-293.87 2089.67,-287.87 2095.67,-287.87 2095.67,-287.87 2151.67,-287.87 2151.67,-287.87 2157.67,-287.87 2163.67,-293.87 2163.67,-299.87 2163.67,-299.87 2163.67,-311.87 2163.67,-311.87 2163.67,-317.87 2157.67,-323.87 2151.67,-323.87"/>
<text text-anchor="middle" x="2123.67" y="-302.17" font-family="Times,serif" font-size="14.00" fill="white">/bin/sh (21)</text>
</g>
<!-- prog7&#45;&gt;prog22 -->
<g id="edge16" class="edge"><title>prog7&#45;&gt;prog22</title>
<path fill="none" stroke="black" d="M1602.3,-213.037C1664.32,-224.003 1748.99,-239.681 1823.07,-255.87 1864.25,-264.868 1873.66,-271.028 1915.07,-278.87 1968.85,-289.053 2031.19,-296.599 2073.41,-301.086"/>
<polygon fill="black" stroke="black" points="2073.12,-304.574 2083.43,-302.133 2073.85,-297.612 2073.12,-304.574"/>
<text text-anchor="middle" x="1869.07" y="-278.67" font-family="Times,serif" font-size="14.00">fork+exec</text>
</g>
<!-- prog27 -->
<g id="node19" class="node"><title>prog27</title>
<path fill="black" stroke="black" d="M2151.67,-377.87C2151.67,-377.87 2095.67,-377.87 2095.67,-377.87 2089.67,-377.87 2083.67,-371.87 2083.67,-365.87 2083.67,-365.87 2083.67,-353.87 2083.67,-353.87 2083.67,-347.87 2089.67,-341.87 2095.67,-341.87 2095.67,-341.87 2151.67,-341.87 2151.67,-341.87 2157.67,-341.87 2163.67,-347.87 2163.67,-353.87 2163.67,-353.87 2163.67,-365.87 2163.67,-365.87 2163.67,-371.87 2157.67,-377.87 2151.67,-377.87"/>
<text text-anchor="middle" x="2123.67" y="-356.17" font-family="Times,serif" font-size="14.00" fill="white">/bin/sh (26)</text>
</g>
<!-- prog7&#45;&gt;prog27 -->
<g id="edge18" class="edge"><title>prog7&#45;&gt;prog27</title>
<path fill="none" stroke="black" d="M1602.33,-193.833C1669.38,-195.298 1760.32,-207.478 1823.07,-255.87 1837.87,-267.281 1828.14,-280.377 1841.07,-293.87 1866.79,-320.713 1879.64,-321.629 1915.07,-332.87 1967.56,-349.52 2030.63,-355.919 2073.38,-358.369"/>
<polygon fill="black" stroke="black" points="2073.35,-361.873 2083.52,-358.898 2073.72,-354.882 2073.35,-361.873"/>
<text text-anchor="middle" x="1869.07" y="-331.67" font-family="Times,serif" font-size="14.00">fork+exec</text>
</g>
<!-- /test/examples/trait&#45;perception&#45;accuracy/Rplots.pdf -->
<g id="node45" class="node"><title>/test/examples/trait&#45;perception&#45;accuracy/Rplots.pdf</title>
<ellipse fill="#a3b4e0" stroke="black" cx="2123.67" cy="-26.8701" rx="208.693" ry="26.7407"/>
<text text-anchor="middle" x="2123.67" y="-30.6701" font-family="Times,serif" font-size="14.00" fill="#131c39">Rplots.pdf</text>
<text text-anchor="middle" x="2123.67" y="-15.6701" font-family="Times,serif" font-size="14.00" fill="#131c39">/test/examples/trait&#45;perception&#45;accuracy/Rplots.pdf</text>
</g>
<!-- prog7&#45;&gt;/test/examples/trait&#45;perception&#45;accuracy/Rplots.pdf -->
<g id="edge44" class="edge"><title>prog7&#45;&gt;/test/examples/trait&#45;perception&#45;accuracy/Rplots.pdf</title>
<path fill="none" stroke="#000088" d="M1558.04,-179.762C1631.25,-150.546 1782.43,-92.9463 1915.07,-59.8701 1932.56,-55.5102 1951.02,-51.6045 1969.43,-48.1401"/>
<polygon fill="#000088" stroke="#000088" points="1970.15,-51.5672 1979.35,-46.3148 1968.88,-44.6829 1970.15,-51.5672"/>
</g>
<!-- prog12 -->
<g id="node10" class="node"><title>prog12</title>
<path fill="black" stroke="black" d="M2533.27,-107.87C2533.27,-107.87 2436.27,-107.87 2436.27,-107.87 2430.27,-107.87 2424.27,-101.87 2424.27,-95.8701 2424.27,-95.8701 2424.27,-83.8701 2424.27,-83.8701 2424.27,-77.8701 2430.27,-71.8701 2436.27,-71.8701 2436.27,-71.8701 2533.27,-71.8701 2533.27,-71.8701 2539.27,-71.8701 2545.27,-77.8701 2545.27,-83.8701 2545.27,-83.8701 2545.27,-95.8701 2545.27,-95.8701 2545.27,-101.87 2539.27,-107.87 2533.27,-107.87"/>
<text text-anchor="middle" x="2484.77" y="-86.1701" font-family="Times,serif" font-size="14.00" fill="white">/usr/bin/which (11)</text>
</g>
<!-- prog11&#45;&gt;prog12 -->
<g id="edge9" class="edge"><title>prog11&#45;&gt;prog12</title>
<path fill="none" stroke="black" d="M2163.78,-89.8701C2223.77,-89.8701 2339.34,-89.8701 2413.94,-89.8701"/>
<polygon fill="black" stroke="black" points="2414.18,-93.3702 2424.18,-89.8701 2414.18,-86.3702 2414.18,-93.3702"/>
<text text-anchor="middle" x="2378.27" y="-93.6701" font-family="Times,serif" font-size="14.00">fork+exec</text>
</g>
<!-- prog14 -->
<g id="node12" class="node"><title>prog14</title>
<path fill="black" stroke="black" d="M2524.77,-161.87C2524.77,-161.87 2444.77,-161.87 2444.77,-161.87 2438.77,-161.87 2432.77,-155.87 2432.77,-149.87 2432.77,-149.87 2432.77,-137.87 2432.77,-137.87 2432.77,-131.87 2438.77,-125.87 2444.77,-125.87 2444.77,-125.87 2524.77,-125.87 2524.77,-125.87 2530.77,-125.87 2536.77,-131.87 2536.77,-137.87 2536.77,-137.87 2536.77,-149.87 2536.77,-149.87 2536.77,-155.87 2530.77,-161.87 2524.77,-161.87"/>
<text text-anchor="middle" x="2484.77" y="-140.17" font-family="Times,serif" font-size="14.00" fill="white">/bin/uname (13)</text>
</g>
<!-- prog13&#45;&gt;prog14 -->
<g id="edge11" class="edge"><title>prog13&#45;&gt;prog14</title>
<path fill="none" stroke="black" d="M2163.78,-143.87C2226.11,-143.87 2348.46,-143.87 2422.49,-143.87"/>
<polygon fill="black" stroke="black" points="2422.6,-147.37 2432.6,-143.87 2422.6,-140.37 2422.6,-147.37"/>
<text text-anchor="middle" x="2378.27" y="-147.67" font-family="Times,serif" font-size="14.00">fork+exec</text>
</g>
<!-- prog16 -->
<g id="node14" class="node"><title>prog16</title>
<path fill="black" stroke="black" d="M2527.27,-215.87C2527.27,-215.87 2442.27,-215.87 2442.27,-215.87 2436.27,-215.87 2430.27,-209.87 2430.27,-203.87 2430.27,-203.87 2430.27,-191.87 2430.27,-191.87 2430.27,-185.87 2436.27,-179.87 2442.27,-179.87 2442.27,-179.87 2527.27,-179.87 2527.27,-179.87 2533.27,-179.87 2539.27,-185.87 2539.27,-191.87 2539.27,-191.87 2539.27,-203.87 2539.27,-203.87 2539.27,-209.87 2533.27,-215.87 2527.27,-215.87"/>
<text text-anchor="middle" x="2484.77" y="-194.17" font-family="Times,serif" font-size="14.00" fill="white">/usr/bin/tput (15)</text>
</g>
<!-- prog15&#45;&gt;prog16 -->
<g id="edge13" class="edge"><title>prog15&#45;&gt;prog16</title>
<path fill="none" stroke="black" d="M2163.78,-197.87C2225.42,-197.87 2345.74,-197.87 2420,-197.87"/>
<polygon fill="black" stroke="black" points="2420.16,-201.37 2430.16,-197.87 2420.16,-194.37 2420.16,-201.37"/>
<text text-anchor="middle" x="2378.27" y="-201.67" font-family="Times,serif" font-size="14.00">fork+exec</text>
</g>
<!-- prog18 -->
<g id="node16" class="node"><title>prog18</title>
<path fill="black" stroke="black" d="M2527.27,-269.87C2527.27,-269.87 2442.27,-269.87 2442.27,-269.87 2436.27,-269.87 2430.27,-263.87 2430.27,-257.87 2430.27,-257.87 2430.27,-245.87 2430.27,-245.87 2430.27,-239.87 2436.27,-233.87 2442.27,-233.87 2442.27,-233.87 2527.27,-233.87 2527.27,-233.87 2533.27,-233.87 2539.27,-239.87 2539.27,-245.87 2539.27,-245.87 2539.27,-257.87 2539.27,-257.87 2539.27,-263.87 2533.27,-269.87 2527.27,-269.87"/>
<text text-anchor="middle" x="2484.77" y="-248.17" font-family="Times,serif" font-size="14.00" fill="white">/usr/bin/tput (17)</text>
</g>
<!-- prog17&#45;&gt;prog18 -->
<g id="edge15" class="edge"><title>prog17&#45;&gt;prog18</title>
<path fill="none" stroke="black" d="M2163.78,-251.87C2225.42,-251.87 2345.74,-251.87 2420,-251.87"/>
<polygon fill="black" stroke="black" points="2420.16,-255.37 2430.16,-251.87 2420.16,-248.37 2420.16,-255.37"/>
<text text-anchor="middle" x="2378.27" y="-255.67" font-family="Times,serif" font-size="14.00">fork+exec</text>
</g>
<!-- prog23 -->
<g id="node18" class="node"><title>prog23</title>
<path fill="black" stroke="black" d="M2533.27,-323.87C2533.27,-323.87 2436.27,-323.87 2436.27,-323.87 2430.27,-323.87 2424.27,-317.87 2424.27,-311.87 2424.27,-311.87 2424.27,-299.87 2424.27,-299.87 2424.27,-293.87 2430.27,-287.87 2436.27,-287.87 2436.27,-287.87 2533.27,-287.87 2533.27,-287.87 2539.27,-287.87 2545.27,-293.87 2545.27,-299.87 2545.27,-299.87 2545.27,-311.87 2545.27,-311.87 2545.27,-317.87 2539.27,-323.87 2533.27,-323.87"/>
<text text-anchor="middle" x="2484.77" y="-302.17" font-family="Times,serif" font-size="14.00" fill="white">/usr/bin/which (22)</text>
</g>
<!-- prog22&#45;&gt;prog23 -->
<g id="edge17" class="edge"><title>prog22&#45;&gt;prog23</title>
<path fill="none" stroke="black" d="M2163.78,-305.87C2223.77,-305.87 2339.34,-305.87 2413.94,-305.87"/>
<polygon fill="black" stroke="black" points="2414.18,-309.37 2424.18,-305.87 2414.18,-302.37 2414.18,-309.37"/>
<text text-anchor="middle" x="2378.27" y="-309.67" font-family="Times,serif" font-size="14.00">fork+exec</text>
</g>
<!-- prog28 -->
<g id="node20" class="node"><title>prog28</title>
<path fill="black" stroke="black" d="M2514.27,-377.87C2514.27,-377.87 2455.27,-377.87 2455.27,-377.87 2449.27,-377.87 2443.27,-371.87 2443.27,-365.87 2443.27,-365.87 2443.27,-353.87 2443.27,-353.87 2443.27,-347.87 2449.27,-341.87 2455.27,-341.87 2455.27,-341.87 2514.27,-341.87 2514.27,-341.87 2520.27,-341.87 2526.27,-347.87 2526.27,-353.87 2526.27,-353.87 2526.27,-365.87 2526.27,-365.87 2526.27,-371.87 2520.27,-377.87 2514.27,-377.87"/>
<text text-anchor="middle" x="2484.77" y="-356.17" font-family="Times,serif" font-size="14.00" fill="white">/bin/rm (27)</text>
</g>
<!-- prog27&#45;&gt;prog28 -->
<g id="edge19" class="edge"><title>prog27&#45;&gt;prog28</title>
<path fill="none" stroke="black" d="M2163.78,-359.87C2229.1,-359.87 2360.34,-359.87 2432.8,-359.87"/>
<polygon fill="black" stroke="black" points="2433.05,-363.37 2443.05,-359.87 2433.05,-356.37 2433.05,-363.37"/>
<text text-anchor="middle" x="2378.27" y="-363.67" font-family="Times,serif" font-size="14.00">fork+exec</text>
</g>
<!-- prog29 -->
<g id="node21" class="node"><title>prog29</title>
<path fill="black" stroke="black" d="M323.029,-1068.87C323.029,-1068.87 220.029,-1068.87 220.029,-1068.87 214.029,-1068.87 208.029,-1062.87 208.029,-1056.87 208.029,-1056.87 208.029,-1044.87 208.029,-1044.87 208.029,-1038.87 214.029,-1032.87 220.029,-1032.87 220.029,-1032.87 323.029,-1032.87 323.029,-1032.87 329.029,-1032.87 335.029,-1038.87 335.029,-1044.87 335.029,-1044.87 335.029,-1056.87 335.029,-1056.87 335.029,-1062.87 329.029,-1068.87 323.029,-1068.87"/>
<text text-anchor="middle" x="271.529" y="-1047.17" font-family="Times,serif" font-size="14.00" fill="white">/usr/local/bin/R (28)</text>
</g>
<!-- prog30 -->
<g id="node22" class="node"><title>prog30</title>
<path fill="black" stroke="black" d="M912.646,-1041.87C912.646,-1041.87 832.646,-1041.87 832.646,-1041.87 826.646,-1041.87 820.646,-1035.87 820.646,-1029.87 820.646,-1029.87 820.646,-1017.87 820.646,-1017.87 820.646,-1011.87 826.646,-1005.87 832.646,-1005.87 832.646,-1005.87 912.646,-1005.87 912.646,-1005.87 918.646,-1005.87 924.646,-1011.87 924.646,-1017.87 924.646,-1017.87 924.646,-1029.87 924.646,-1029.87 924.646,-1035.87 918.646,-1041.87 912.646,-1041.87"/>
<text text-anchor="middle" x="872.646" y="-1020.17" font-family="Times,serif" font-size="14.00" fill="white">/bin/uname (29)</text>
</g>
<!-- prog29&#45;&gt;prog30 -->
<g id="edge20" class="edge"><title>prog29&#45;&gt;prog30</title>
<path fill="none" stroke="black" d="M335.28,-1047.7C393.723,-1044.79 483.278,-1040.38 561.058,-1036.87 647.623,-1032.96 747.778,-1028.84 810.424,-1026.31"/>
<polygon fill="black" stroke="black" points="810.678,-1029.8 820.529,-1025.91 810.397,-1022.81 810.678,-1029.8"/>
<text text-anchor="middle" x="589.058" y="-1040.67" font-family="Times,serif" font-size="14.00">fork+exec</text>
</g>
<!-- prog31 -->
<g id="node23" class="node"><title>prog31</title>
<path fill="black" stroke="black" d="M924.146,-1095.87C924.146,-1095.87 821.146,-1095.87 821.146,-1095.87 815.146,-1095.87 809.146,-1089.87 809.146,-1083.87 809.146,-1083.87 809.146,-1071.87 809.146,-1071.87 809.146,-1065.87 815.146,-1059.87 821.146,-1059.87 821.146,-1059.87 924.146,-1059.87 924.146,-1059.87 930.146,-1059.87 936.146,-1065.87 936.146,-1071.87 936.146,-1071.87 936.146,-1083.87 936.146,-1083.87 936.146,-1089.87 930.146,-1095.87 924.146,-1095.87"/>
<text text-anchor="middle" x="872.646" y="-1074.17" font-family="Times,serif" font-size="14.00" fill="white">/usr/local/bin/R (30)</text>
</g>
<!-- prog29&#45;&gt;prog31 -->
<g id="edge21" class="edge"><title>prog29&#45;&gt;prog31</title>
<path fill="none" stroke="black" d="M335.231,-1053.7C447.048,-1058.73 680.245,-1069.24 798.909,-1074.59"/>
<polygon fill="black" stroke="black" points="798.839,-1078.09 808.987,-1075.05 799.154,-1071.1 798.839,-1078.09"/>
<text text-anchor="middle" x="589.058" y="-1070.67" font-family="Times,serif" font-size="14.00">fork</text>
</g>
<!-- prog34 -->
<g id="node26" class="node"><title>prog34</title>
<path fill="black" stroke="black" d="M924.146,-1195.87C924.146,-1195.87 821.146,-1195.87 821.146,-1195.87 815.146,-1195.87 809.146,-1189.87 809.146,-1183.87 809.146,-1183.87 809.146,-1171.87 809.146,-1171.87 809.146,-1165.87 815.146,-1159.87 821.146,-1159.87 821.146,-1159.87 924.146,-1159.87 924.146,-1159.87 930.146,-1159.87 936.146,-1165.87 936.146,-1171.87 936.146,-1171.87 936.146,-1183.87 936.146,-1183.87 936.146,-1189.87 930.146,-1195.87 924.146,-1195.87"/>
<text text-anchor="middle" x="872.646" y="-1174.17" font-family="Times,serif" font-size="14.00" fill="white">/usr/local/bin/R (33)</text>
</g>
<!-- prog29&#45;&gt;prog34 -->
<g id="edge24" class="edge"><title>prog29&#45;&gt;prog34</title>
<path fill="none" stroke="black" d="M335.231,-1064.16C447.048,-1087.86 680.245,-1137.3 798.909,-1162.45"/>
<polygon fill="black" stroke="black" points="798.478,-1165.94 808.987,-1164.59 799.93,-1159.09 798.478,-1165.94"/>
<text text-anchor="middle" x="589.058" y="-1125.67" font-family="Times,serif" font-size="14.00">fork</text>
</g>
<!-- prog38 -->
<g id="node30" class="node"><title>prog38</title>
<path fill="black" stroke="black" d="M953.646,-823.87C953.646,-823.87 791.646,-823.87 791.646,-823.87 785.646,-823.87 779.646,-817.87 779.646,-811.87 779.646,-811.87 779.646,-799.87 779.646,-799.87 779.646,-793.87 785.646,-787.87 791.646,-787.87 791.646,-787.87 953.646,-787.87 953.646,-787.87 959.646,-787.87 965.646,-793.87 965.646,-799.87 965.646,-799.87 965.646,-811.87 965.646,-811.87 965.646,-817.87 959.646,-823.87 953.646,-823.87"/>
<text text-anchor="middle" x="872.646" y="-802.17" font-family="Times,serif" font-size="14.00" fill="white">/usr/local/lib/R/bin/exec/R (28)</text>
</g>
<!-- prog29&#45;&gt;prog38 -->
<g id="edge28" class="edge"><title>prog29&#45;&gt;prog38</title>
<path fill="none" stroke="black" d="M316.583,-1032.85C424.349,-988.786 700.976,-875.663 818.04,-827.792"/>
<polygon fill="black" stroke="black" points="819.596,-830.937 827.527,-823.912 816.946,-824.457 819.596,-830.937"/>
<text text-anchor="middle" x="589.058" y="-932.67" font-family="Times,serif" font-size="14.00">exec</text>
</g>
<!-- prog32 -->
<g id="node24" class="node"><title>prog32</title>
<path fill="black" stroke="black" d="M1564.15,-1064.87C1564.15,-1064.87 1461.15,-1064.87 1461.15,-1064.87 1455.15,-1064.87 1449.15,-1058.87 1449.15,-1052.87 1449.15,-1052.87 1449.15,-1040.87 1449.15,-1040.87 1449.15,-1034.87 1455.15,-1028.87 1461.15,-1028.87 1461.15,-1028.87 1564.15,-1028.87 1564.15,-1028.87 1570.15,-1028.87 1576.15,-1034.87 1576.15,-1040.87 1576.15,-1040.87 1576.15,-1052.87 1576.15,-1052.87 1576.15,-1058.87 1570.15,-1064.87 1564.15,-1064.87"/>
<text text-anchor="middle" x="1512.65" y="-1043.17" font-family="Times,serif" font-size="14.00" fill="white">/usr/local/bin/R (31)</text>
</g>
<!-- prog31&#45;&gt;prog32 -->
<g id="edge22" class="edge"><title>prog31&#45;&gt;prog32</title>
<path fill="none" stroke="black" d="M936.274,-1074.83C1055.07,-1069.06 1312.51,-1056.55 1438.8,-1050.41"/>
<polygon fill="black" stroke="black" points="1439.32,-1053.89 1449.13,-1049.91 1438.98,-1046.9 1439.32,-1053.89"/>
<text text-anchor="middle" x="1156.23" y="-1069.67" font-family="Times,serif" font-size="14.00">fork</text>
</g>
<!-- prog33 -->
<g id="node25" class="node"><title>prog33</title>
<path fill="black" stroke="black" d="M1543.65,-1118.87C1543.65,-1118.87 1481.65,-1118.87 1481.65,-1118.87 1475.65,-1118.87 1469.65,-1112.87 1469.65,-1106.87 1469.65,-1106.87 1469.65,-1094.87 1469.65,-1094.87 1469.65,-1088.87 1475.65,-1082.87 1481.65,-1082.87 1481.65,-1082.87 1543.65,-1082.87 1543.65,-1082.87 1549.65,-1082.87 1555.65,-1088.87 1555.65,-1094.87 1555.65,-1094.87 1555.65,-1106.87 1555.65,-1106.87 1555.65,-1112.87 1549.65,-1118.87 1543.65,-1118.87"/>
<text text-anchor="middle" x="1512.65" y="-1097.17" font-family="Times,serif" font-size="14.00" fill="white">/bin/sed (32)</text>
</g>
<!-- prog31&#45;&gt;prog33 -->
<g id="edge23" class="edge"><title>prog31&#45;&gt;prog33</title>
<path fill="none" stroke="black" d="M936.274,-1080.13C1061.99,-1084.66 1342.98,-1094.79 1459.49,-1098.99"/>
<polygon fill="black" stroke="black" points="1459.46,-1102.49 1469.58,-1099.35 1459.72,-1095.5 1459.46,-1102.49"/>
<text text-anchor="middle" x="1156.23" y="-1091.67" font-family="Times,serif" font-size="14.00">fork+exec</text>
</g>
<!-- prog35 -->
<g id="node27" class="node"><title>prog35</title>
<path fill="black" stroke="black" d="M1564.15,-1172.87C1564.15,-1172.87 1461.15,-1172.87 1461.15,-1172.87 1455.15,-1172.87 1449.15,-1166.87 1449.15,-1160.87 1449.15,-1160.87 1449.15,-1148.87 1449.15,-1148.87 1449.15,-1142.87 1455.15,-1136.87 1461.15,-1136.87 1461.15,-1136.87 1564.15,-1136.87 1564.15,-1136.87 1570.15,-1136.87 1576.15,-1142.87 1576.15,-1148.87 1576.15,-1148.87 1576.15,-1160.87 1576.15,-1160.87 1576.15,-1166.87 1570.15,-1172.87 1564.15,-1172.87"/>
<text text-anchor="middle" x="1512.65" y="-1151.17" font-family="Times,serif" font-size="14.00" fill="white">/usr/local/bin/R (34)</text>
</g>
<!-- prog34&#45;&gt;prog35 -->
<g id="edge25" class="edge"><title>prog34&#45;&gt;prog35</title>
<path fill="none" stroke="black" d="M936.156,-1175.32C987.691,-1173.24 1062.7,-1170.27 1128.23,-1167.87 1236.36,-1163.91 1361.66,-1159.74 1438.8,-1157.22"/>
<polygon fill="black" stroke="black" points="1439.01,-1160.72 1448.89,-1156.89 1438.78,-1153.72 1439.01,-1160.72"/>
<text text-anchor="middle" x="1156.23" y="-1171.67" font-family="Times,serif" font-size="14.00">fork</text>
</g>
<!-- prog36 -->
<g id="node28" class="node"><title>prog36</title>
<path fill="black" stroke="black" d="M1543.65,-1226.87C1543.65,-1226.87 1481.65,-1226.87 1481.65,-1226.87 1475.65,-1226.87 1469.65,-1220.87 1469.65,-1214.87 1469.65,-1214.87 1469.65,-1202.87 1469.65,-1202.87 1469.65,-1196.87 1475.65,-1190.87 1481.65,-1190.87 1481.65,-1190.87 1543.65,-1190.87 1543.65,-1190.87 1549.65,-1190.87 1555.65,-1196.87 1555.65,-1202.87 1555.65,-1202.87 1555.65,-1214.87 1555.65,-1214.87 1555.65,-1220.87 1549.65,-1226.87 1543.65,-1226.87"/>
<text text-anchor="middle" x="1512.65" y="-1205.17" font-family="Times,serif" font-size="14.00" fill="white">/bin/sed (35)</text>
</g>
<!-- prog34&#45;&gt;prog36 -->
<g id="edge26" class="edge"><title>prog34&#45;&gt;prog36</title>
<path fill="none" stroke="black" d="M936.274,-1180.91C1061.99,-1187.02 1342.98,-1200.67 1459.49,-1206.34"/>
<polygon fill="black" stroke="black" points="1459.42,-1209.84 1469.58,-1206.83 1459.76,-1202.84 1459.42,-1209.84"/>
<text text-anchor="middle" x="1156.23" y="-1195.67" font-family="Times,serif" font-size="14.00">fork+exec</text>
</g>
<!-- prog37 -->
<g id="node29" class="node"><title>prog37</title>
<path fill="black" stroke="black" d="M1543.65,-1280.87C1543.65,-1280.87 1481.65,-1280.87 1481.65,-1280.87 1475.65,-1280.87 1469.65,-1274.87 1469.65,-1268.87 1469.65,-1268.87 1469.65,-1256.87 1469.65,-1256.87 1469.65,-1250.87 1475.65,-1244.87 1481.65,-1244.87 1481.65,-1244.87 1543.65,-1244.87 1543.65,-1244.87 1549.65,-1244.87 1555.65,-1250.87 1555.65,-1256.87 1555.65,-1256.87 1555.65,-1268.87 1555.65,-1268.87 1555.65,-1274.87 1549.65,-1280.87 1543.65,-1280.87"/>
<text text-anchor="middle" x="1512.65" y="-1259.17" font-family="Times,serif" font-size="14.00" fill="white">/bin/sed (36)</text>
</g>
<!-- prog34&#45;&gt;prog37 -->
<g id="edge27" class="edge"><title>prog34&#45;&gt;prog37</title>
<path fill="none" stroke="black" d="M936.385,-1190.63C1002.32,-1203.65 1109.19,-1223.62 1202.23,-1235.87 1292.19,-1247.71 1397.57,-1255.65 1459.23,-1259.7"/>
<polygon fill="black" stroke="black" points="1459.28,-1263.21 1469.49,-1260.37 1459.73,-1256.23 1459.28,-1263.21"/>
<text text-anchor="middle" x="1156.23" y="-1235.67" font-family="Times,serif" font-size="14.00">fork+exec</text>
</g>
<!-- prog42 -->
<g id="node31" class="node"><title>prog42</title>
<path fill="black" stroke="black" d="M1540.65,-686.87C1540.65,-686.87 1484.65,-686.87 1484.65,-686.87 1478.65,-686.87 1472.65,-680.87 1472.65,-674.87 1472.65,-674.87 1472.65,-662.87 1472.65,-662.87 1472.65,-656.87 1478.65,-650.87 1484.65,-650.87 1484.65,-650.87 1540.65,-650.87 1540.65,-650.87 1546.65,-650.87 1552.65,-656.87 1552.65,-662.87 1552.65,-662.87 1552.65,-674.87 1552.65,-674.87 1552.65,-680.87 1546.65,-686.87 1540.65,-686.87"/>
<text text-anchor="middle" x="1512.65" y="-665.17" font-family="Times,serif" font-size="14.00" fill="white">/bin/sh (40)</text>
</g>
<!-- prog38&#45;&gt;prog42 -->
<g id="edge29" class="edge"><title>prog38&#45;&gt;prog42</title>
<path fill="none" stroke="black" d="M916.59,-787.847C978.495,-762.713 1096.95,-717.764 1202.23,-695.87 1292.81,-677.033 1400.96,-671.318 1462.45,-669.597"/>
<polygon fill="black" stroke="black" points="1462.73,-673.091 1472.64,-669.336 1462.55,-666.093 1462.73,-673.091"/>
<text text-anchor="middle" x="1156.23" y="-718.67" font-family="Times,serif" font-size="14.00">fork+exec</text>
</g>
<!-- prog44 -->
<g id="node33" class="node"><title>prog44</title>
<path fill="black" stroke="black" d="M1540.65,-740.87C1540.65,-740.87 1484.65,-740.87 1484.65,-740.87 1478.65,-740.87 1472.65,-734.87 1472.65,-728.87 1472.65,-728.87 1472.65,-716.87 1472.65,-716.87 1472.65,-710.87 1478.65,-704.87 1484.65,-704.87 1484.65,-704.87 1540.65,-704.87 1540.65,-704.87 1546.65,-704.87 1552.65,-710.87 1552.65,-716.87 1552.65,-716.87 1552.65,-728.87 1552.65,-728.87 1552.65,-734.87 1546.65,-740.87 1540.65,-740.87"/>
<text text-anchor="middle" x="1512.65" y="-719.17" font-family="Times,serif" font-size="14.00" fill="white">/bin/sh (42)</text>
</g>
<!-- prog38&#45;&gt;prog44 -->
<g id="edge31" class="edge"><title>prog38&#45;&gt;prog44</title>
<path fill="none" stroke="black" d="M965.76,-788.097C1031.46,-775.928 1122.02,-760.187 1202.23,-749.87 1293.74,-738.1 1401.15,-730.002 1462.33,-725.925"/>
<polygon fill="black" stroke="black" points="1462.72,-729.407 1472.47,-725.258 1462.26,-722.422 1462.72,-729.407"/>
<text text-anchor="middle" x="1156.23" y="-764.67" font-family="Times,serif" font-size="14.00">fork+exec</text>
</g>
<!-- prog46 -->
<g id="node35" class="node"><title>prog46</title>
<path fill="black" stroke="black" d="M1540.65,-794.87C1540.65,-794.87 1484.65,-794.87 1484.65,-794.87 1478.65,-794.87 1472.65,-788.87 1472.65,-782.87 1472.65,-782.87 1472.65,-770.87 1472.65,-770.87 1472.65,-764.87 1478.65,-758.87 1484.65,-758.87 1484.65,-758.87 1540.65,-758.87 1540.65,-758.87 1546.65,-758.87 1552.65,-764.87 1552.65,-770.87 1552.65,-770.87 1552.65,-782.87 1552.65,-782.87 1552.65,-788.87 1546.65,-794.87 1540.65,-794.87"/>
<text text-anchor="middle" x="1512.65" y="-773.17" font-family="Times,serif" font-size="14.00" fill="white">/bin/sh (44)</text>
</g>
<!-- prog38&#45;&gt;prog46 -->
<g id="edge33" class="edge"><title>prog38&#45;&gt;prog46</title>
<path fill="none" stroke="black" d="M965.736,-801.684C1102.83,-795.453 1355.85,-783.952 1462.35,-779.111"/>
<polygon fill="black" stroke="black" points="1462.67,-782.6 1472.5,-778.65 1462.35,-775.608 1462.67,-782.6"/>
<text text-anchor="middle" x="1156.23" y="-798.67" font-family="Times,serif" font-size="14.00">fork+exec</text>
</g>
<!-- prog48 -->
<g id="node37" class="node"><title>prog48</title>
<path fill="black" stroke="black" d="M1540.65,-848.87C1540.65,-848.87 1484.65,-848.87 1484.65,-848.87 1478.65,-848.87 1472.65,-842.87 1472.65,-836.87 1472.65,-836.87 1472.65,-824.87 1472.65,-824.87 1472.65,-818.87 1478.65,-812.87 1484.65,-812.87 1484.65,-812.87 1540.65,-812.87 1540.65,-812.87 1546.65,-812.87 1552.65,-818.87 1552.65,-824.87 1552.65,-824.87 1552.65,-836.87 1552.65,-836.87 1552.65,-842.87 1546.65,-848.87 1540.65,-848.87"/>
<text text-anchor="middle" x="1512.65" y="-827.17" font-family="Times,serif" font-size="14.00" fill="white">/bin/sh (46)</text>
</g>
<!-- prog38&#45;&gt;prog48 -->
<g id="edge35" class="edge"><title>prog38&#45;&gt;prog48</title>
<path fill="none" stroke="black" d="M965.736,-809.479C1102.83,-814.85 1355.85,-824.765 1462.35,-828.938"/>
<polygon fill="black" stroke="black" points="1462.37,-832.441 1472.5,-829.336 1462.64,-825.447 1462.37,-832.441"/>
<text text-anchor="middle" x="1156.23" y="-821.67" font-family="Times,serif" font-size="14.00">fork+exec</text>
</g>
<!-- prog54 -->
<g id="node39" class="node"><title>prog54</title>
<path fill="black" stroke="black" d="M1540.65,-902.87C1540.65,-902.87 1484.65,-902.87 1484.65,-902.87 1478.65,-902.87 1472.65,-896.87 1472.65,-890.87 1472.65,-890.87 1472.65,-878.87 1472.65,-878.87 1472.65,-872.87 1478.65,-866.87 1484.65,-866.87 1484.65,-866.87 1540.65,-866.87 1540.65,-866.87 1546.65,-866.87 1552.65,-872.87 1552.65,-878.87 1552.65,-878.87 1552.65,-890.87 1552.65,-890.87 1552.65,-896.87 1546.65,-902.87 1540.65,-902.87"/>
<text text-anchor="middle" x="1512.65" y="-881.17" font-family="Times,serif" font-size="14.00" fill="white">/bin/sh (52)</text>
</g>
<!-- prog38&#45;&gt;prog54 -->
<g id="edge37" class="edge"><title>prog38&#45;&gt;prog54</title>
<path fill="none" stroke="black" d="M965.82,-822.224C1031.55,-833.453 1122.12,-848.048 1202.23,-857.87 1293.81,-869.098 1401.2,-877.378 1462.35,-881.636"/>
<polygon fill="black" stroke="black" points="1462.27,-885.138 1472.49,-882.334 1462.75,-878.155 1462.27,-885.138"/>
<text text-anchor="middle" x="1156.23" y="-858.67" font-family="Times,serif" font-size="14.00">fork+exec</text>
</g>
<!-- prog59 -->
<g id="node41" class="node"><title>prog59</title>
<path fill="black" stroke="black" d="M1540.65,-956.87C1540.65,-956.87 1484.65,-956.87 1484.65,-956.87 1478.65,-956.87 1472.65,-950.87 1472.65,-944.87 1472.65,-944.87 1472.65,-932.87 1472.65,-932.87 1472.65,-926.87 1478.65,-920.87 1484.65,-920.87 1484.65,-920.87 1540.65,-920.87 1540.65,-920.87 1546.65,-920.87 1552.65,-926.87 1552.65,-932.87 1552.65,-932.87 1552.65,-944.87 1552.65,-944.87 1552.65,-950.87 1546.65,-956.87 1540.65,-956.87"/>
<text text-anchor="middle" x="1512.65" y="-935.17" font-family="Times,serif" font-size="14.00" fill="white">/bin/sh (57)</text>
</g>
<!-- prog38&#45;&gt;prog59 -->
<g id="edge39" class="edge"><title>prog38&#45;&gt;prog59</title>
<path fill="none" stroke="black" d="M918.498,-823.915C980.973,-848.218 1098.24,-890.839 1202.23,-911.87 1292.67,-930.159 1400.44,-936.062 1461.97,-937.965"/>
<polygon fill="black" stroke="black" points="1462.08,-941.47 1472.17,-938.257 1462.28,-934.473 1462.08,-941.47"/>
<text text-anchor="middle" x="1156.23" y="-912.67" font-family="Times,serif" font-size="14.00">fork+exec</text>
</g>
<!-- prog65 -->
<g id="node43" class="node"><title>prog65</title>
<path fill="black" stroke="black" d="M1540.65,-1010.87C1540.65,-1010.87 1484.65,-1010.87 1484.65,-1010.87 1478.65,-1010.87 1472.65,-1004.87 1472.65,-998.87 1472.65,-998.87 1472.65,-986.87 1472.65,-986.87 1472.65,-980.87 1478.65,-974.87 1484.65,-974.87 1484.65,-974.87 1540.65,-974.87 1540.65,-974.87 1546.65,-974.87 1552.65,-980.87 1552.65,-986.87 1552.65,-986.87 1552.65,-998.87 1552.65,-998.87 1552.65,-1004.87 1546.65,-1010.87 1540.65,-1010.87"/>
<text text-anchor="middle" x="1512.65" y="-989.17" font-family="Times,serif" font-size="14.00" fill="white">/bin/sh (63)</text>
</g>
<!-- prog38&#45;&gt;prog65 -->
<g id="edge41" class="edge"><title>prog38&#45;&gt;prog65</title>
<path fill="none" stroke="black" d="M901.681,-823.966C956.728,-858.463 1083.91,-933.111 1202.23,-965.87 1291.4,-990.555 1400.03,-994.28 1461.98,-994.052"/>
<polygon fill="black" stroke="black" points="1462.28,-997.55 1472.26,-993.976 1462.23,-990.55 1462.28,-997.55"/>
<text text-anchor="middle" x="1156.23" y="-964.67" font-family="Times,serif" font-size="14.00">fork+exec</text>
</g>
<!-- /test/examples/trait&#45;perception&#45;accuracy/results/smallest_k_explainer.nb.html -->
<g id="node46" class="node"><title>/test/examples/trait&#45;perception&#45;accuracy/results/smallest_k_explainer.nb.html</title>
<ellipse fill="#a3b4e0" stroke="black" cx="1512.65" cy="-605.87" rx="310.34" ry="26.7407"/>
<text text-anchor="middle" x="1512.65" y="-609.67" font-family="Times,serif" font-size="14.00" fill="#131c39">smallest_k_explainer.nb.html</text>
<text text-anchor="middle" x="1512.65" y="-594.67" font-family="Times,serif" font-size="14.00" fill="#131c39">/test/examples/trait&#45;perception&#45;accuracy/results/smallest_k_explainer.nb.html</text>
</g>
<!-- prog38&#45;&gt;/test/examples/trait&#45;perception&#45;accuracy/results/smallest_k_explainer.nb.html -->
<g id="edge46" class="edge"><title>prog38&#45;&gt;/test/examples/trait&#45;perception&#45;accuracy/results/smallest_k_explainer.nb.html</title>
<path fill="none" stroke="#000088" d="M900.765,-787.712C955.225,-752.269 1082.9,-674.25 1202.23,-638.87 1221.15,-633.261 1240.97,-628.581 1261.04,-624.679"/>
<polygon fill="#000088" stroke="#000088" points="1261.74,-628.111 1270.92,-622.825 1260.44,-621.231 1261.74,-628.111"/>
</g>
<!-- prog43 -->
<g id="node32" class="node"><title>prog43</title>
<path fill="black" stroke="black" d="M2172.17,-686.87C2172.17,-686.87 2075.17,-686.87 2075.17,-686.87 2069.17,-686.87 2063.17,-680.87 2063.17,-674.87 2063.17,-674.87 2063.17,-662.87 2063.17,-662.87 2063.17,-656.87 2069.17,-650.87 2075.17,-650.87 2075.17,-650.87 2172.17,-650.87 2172.17,-650.87 2178.17,-650.87 2184.17,-656.87 2184.17,-662.87 2184.17,-662.87 2184.17,-674.87 2184.17,-674.87 2184.17,-680.87 2178.17,-686.87 2172.17,-686.87"/>
<text text-anchor="middle" x="2123.67" y="-665.17" font-family="Times,serif" font-size="14.00" fill="white">/usr/bin/which (41)</text>
</g>
<!-- prog42&#45;&gt;prog43 -->
<g id="edge30" class="edge"><title>prog42&#45;&gt;prog43</title>
<path fill="none" stroke="black" d="M1552.68,-668.87C1653.51,-668.87 1923.84,-668.87 2052.61,-668.87"/>
<polygon fill="black" stroke="black" points="2052.75,-672.37 2062.75,-668.87 2052.75,-665.37 2052.75,-672.37"/>
<text text-anchor="middle" x="1869.07" y="-672.67" font-family="Times,serif" font-size="14.00">fork+exec</text>
</g>
<!-- prog45 -->
<g id="node34" class="node"><title>prog45</title>
<path fill="black" stroke="black" d="M2163.67,-740.87C2163.67,-740.87 2083.67,-740.87 2083.67,-740.87 2077.67,-740.87 2071.67,-734.87 2071.67,-728.87 2071.67,-728.87 2071.67,-716.87 2071.67,-716.87 2071.67,-710.87 2077.67,-704.87 2083.67,-704.87 2083.67,-704.87 2163.67,-704.87 2163.67,-704.87 2169.67,-704.87 2175.67,-710.87 2175.67,-716.87 2175.67,-716.87 2175.67,-728.87 2175.67,-728.87 2175.67,-734.87 2169.67,-740.87 2163.67,-740.87"/>
<text text-anchor="middle" x="2123.67" y="-719.17" font-family="Times,serif" font-size="14.00" fill="white">/bin/uname (43)</text>
</g>
<!-- prog44&#45;&gt;prog45 -->
<g id="edge32" class="edge"><title>prog44&#45;&gt;prog45</title>
<path fill="none" stroke="black" d="M1552.68,-722.87C1655.84,-722.87 1936.4,-722.87 2061.29,-722.87"/>
<polygon fill="black" stroke="black" points="2061.44,-726.37 2071.44,-722.87 2061.44,-719.37 2061.44,-726.37"/>
<text text-anchor="middle" x="1869.07" y="-726.67" font-family="Times,serif" font-size="14.00">fork+exec</text>
</g>
<!-- prog47 -->
<g id="node36" class="node"><title>prog47</title>
<path fill="black" stroke="black" d="M2172.17,-794.87C2172.17,-794.87 2075.17,-794.87 2075.17,-794.87 2069.17,-794.87 2063.17,-788.87 2063.17,-782.87 2063.17,-782.87 2063.17,-770.87 2063.17,-770.87 2063.17,-764.87 2069.17,-758.87 2075.17,-758.87 2075.17,-758.87 2172.17,-758.87 2172.17,-758.87 2178.17,-758.87 2184.17,-764.87 2184.17,-770.87 2184.17,-770.87 2184.17,-782.87 2184.17,-782.87 2184.17,-788.87 2178.17,-794.87 2172.17,-794.87"/>
<text text-anchor="middle" x="2123.67" y="-773.17" font-family="Times,serif" font-size="14.00" fill="white">/usr/bin/which (45)</text>
</g>
<!-- prog46&#45;&gt;prog47 -->
<g id="edge34" class="edge"><title>prog46&#45;&gt;prog47</title>
<path fill="none" stroke="black" d="M1552.68,-776.87C1653.51,-776.87 1923.84,-776.87 2052.61,-776.87"/>
<polygon fill="black" stroke="black" points="2052.75,-780.37 2062.75,-776.87 2052.75,-773.37 2052.75,-780.37"/>
<text text-anchor="middle" x="1869.07" y="-780.67" font-family="Times,serif" font-size="14.00">fork+exec</text>
</g>
<!-- prog49 -->
<g id="node38" class="node"><title>prog49</title>
<path fill="black" stroke="black" d="M2190.17,-848.87C2190.17,-848.87 2057.17,-848.87 2057.17,-848.87 2051.17,-848.87 2045.17,-842.87 2045.17,-836.87 2045.17,-836.87 2045.17,-824.87 2045.17,-824.87 2045.17,-818.87 2051.17,-812.87 2057.17,-812.87 2057.17,-812.87 2190.17,-812.87 2190.17,-812.87 2196.17,-812.87 2202.17,-818.87 2202.17,-824.87 2202.17,-824.87 2202.17,-836.87 2202.17,-836.87 2202.17,-842.87 2196.17,-848.87 2190.17,-848.87"/>
<text text-anchor="middle" x="2123.67" y="-827.17" font-family="Times,serif" font-size="14.00" fill="white">/usr/local/bin/pandoc (47)</text>
</g>
<!-- prog48&#45;&gt;prog49 -->
<g id="edge36" class="edge"><title>prog48&#45;&gt;prog49</title>
<path fill="none" stroke="black" d="M1552.68,-830.87C1649.07,-830.87 1900.36,-830.87 2034.8,-830.87"/>
<polygon fill="black" stroke="black" points="2035.07,-834.37 2045.07,-830.87 2035.07,-827.37 2035.07,-834.37"/>
<text text-anchor="middle" x="1869.07" y="-834.67" font-family="Times,serif" font-size="14.00">fork+exec</text>
</g>
<!-- prog55 -->
<g id="node40" class="node"><title>prog55</title>
<path fill="black" stroke="black" d="M2166.17,-902.87C2166.17,-902.87 2081.17,-902.87 2081.17,-902.87 2075.17,-902.87 2069.17,-896.87 2069.17,-890.87 2069.17,-890.87 2069.17,-878.87 2069.17,-878.87 2069.17,-872.87 2075.17,-866.87 2081.17,-866.87 2081.17,-866.87 2166.17,-866.87 2166.17,-866.87 2172.17,-866.87 2178.17,-872.87 2178.17,-878.87 2178.17,-878.87 2178.17,-890.87 2178.17,-890.87 2178.17,-896.87 2172.17,-902.87 2166.17,-902.87"/>
<text text-anchor="middle" x="2123.67" y="-881.17" font-family="Times,serif" font-size="14.00" fill="white">/usr/bin/tput (53)</text>
</g>
<!-- prog54&#45;&gt;prog55 -->
<g id="edge38" class="edge"><title>prog54&#45;&gt;prog55</title>
<path fill="none" stroke="black" d="M1552.68,-884.87C1655.07,-884.87 1932.24,-884.87 2058.48,-884.87"/>
<polygon fill="black" stroke="black" points="2058.76,-888.37 2068.76,-884.87 2058.76,-881.37 2058.76,-888.37"/>
<text text-anchor="middle" x="1869.07" y="-888.67" font-family="Times,serif" font-size="14.00">fork+exec</text>
</g>
<!-- prog60 -->
<g id="node42" class="node"><title>prog60</title>
<path fill="black" stroke="black" d="M2190.17,-956.87C2190.17,-956.87 2057.17,-956.87 2057.17,-956.87 2051.17,-956.87 2045.17,-950.87 2045.17,-944.87 2045.17,-944.87 2045.17,-932.87 2045.17,-932.87 2045.17,-926.87 2051.17,-920.87 2057.17,-920.87 2057.17,-920.87 2190.17,-920.87 2190.17,-920.87 2196.17,-920.87 2202.17,-926.87 2202.17,-932.87 2202.17,-932.87 2202.17,-944.87 2202.17,-944.87 2202.17,-950.87 2196.17,-956.87 2190.17,-956.87"/>
<text text-anchor="middle" x="2123.67" y="-935.17" font-family="Times,serif" font-size="14.00" fill="white">/usr/local/bin/pandoc (58)</text>
</g>
<!-- prog59&#45;&gt;prog60 -->
<g id="edge40" class="edge"><title>prog59&#45;&gt;prog60</title>
<path fill="none" stroke="black" d="M1552.68,-938.87C1649.07,-938.87 1900.36,-938.87 2034.8,-938.87"/>
<polygon fill="black" stroke="black" points="2035.07,-942.37 2045.07,-938.87 2035.07,-935.37 2035.07,-942.37"/>
<text text-anchor="middle" x="1869.07" y="-942.67" font-family="Times,serif" font-size="14.00">fork+exec</text>
</g>
<!-- prog66 -->
<g id="node44" class="node"><title>prog66</title>
<path fill="black" stroke="black" d="M2153.17,-1010.87C2153.17,-1010.87 2094.17,-1010.87 2094.17,-1010.87 2088.17,-1010.87 2082.17,-1004.87 2082.17,-998.87 2082.17,-998.87 2082.17,-986.87 2082.17,-986.87 2082.17,-980.87 2088.17,-974.87 2094.17,-974.87 2094.17,-974.87 2153.17,-974.87 2153.17,-974.87 2159.17,-974.87 2165.17,-980.87 2165.17,-986.87 2165.17,-986.87 2165.17,-998.87 2165.17,-998.87 2165.17,-1004.87 2159.17,-1010.87 2153.17,-1010.87"/>
<text text-anchor="middle" x="2123.67" y="-989.17" font-family="Times,serif" font-size="14.00" fill="white">/bin/rm (64)</text>
</g>
<!-- prog65&#45;&gt;prog66 -->
<g id="edge42" class="edge"><title>prog65&#45;&gt;prog66</title>
<path fill="none" stroke="black" d="M1552.68,-992.87C1658.82,-992.87 1952.74,-992.87 2071.71,-992.87"/>
<polygon fill="black" stroke="black" points="2071.99,-996.37 2081.99,-992.87 2071.99,-989.37 2071.99,-996.37"/>
<text text-anchor="middle" x="1869.07" y="-996.67" font-family="Times,serif" font-size="14.00">fork+exec</text>
</g>
<!-- /test/examples/trait&#45;perception&#45;accuracy/smallest_k_explainer.Rmd -->
<g id="node47" class="node"><title>/test/examples/trait&#45;perception&#45;accuracy/smallest_k_explainer.Rmd</title>
<ellipse fill="#a3b4e0" stroke="black" cx="271.529" cy="-607.87" rx="271.558" ry="26.7407"/>
<text text-anchor="middle" x="271.529" y="-611.67" font-family="Times,serif" font-size="14.00" fill="#131c39">smallest_k_explainer.Rmd</text>
<text text-anchor="middle" x="271.529" y="-596.67" font-family="Times,serif" font-size="14.00" fill="#131c39">/test/examples/trait&#45;perception&#45;accuracy/smallest_k_explainer.Rmd</text>
</g>
<!-- /test/examples/trait&#45;perception&#45;accuracy/smallest_k_explainer.Rmd&#45;&gt;prog38 -->
<g id="edge45" class="edge"><title>/test/examples/trait&#45;perception&#45;accuracy/smallest_k_explainer.Rmd&#45;&gt;prog38</title>
<path fill="none" stroke="#8888cc" d="M483.742,-624.652C503.988,-628.475 524.044,-633.151 543.058,-638.87 656.427,-672.967 777.545,-744.998 836.004,-782.328"/>
<polygon fill="#8888cc" stroke="#8888cc" points="834.198,-785.328 844.503,-787.793 837.985,-779.441 834.198,-785.328"/>
</g>
<!-- /test/examples/trait&#45;perception&#45;accuracy/smallest_k_sim.R -->
<g id="node48" class="node"><title>/test/examples/trait&#45;perception&#45;accuracy/smallest_k_sim.R</title>
<ellipse fill="#a3b4e0" stroke="black" cx="872.646" cy="-28.8701" rx="237.676" ry="26.7407"/>
<text text-anchor="middle" x="872.646" y="-32.6701" font-family="Times,serif" font-size="14.00" fill="#131c39">arg0</text>
<text text-anchor="middle" x="872.646" y="-17.6701" font-family="Times,serif" font-size="14.00" fill="#131c39">/test/examples/trait&#45;perception&#45;accuracy/smallest_k_sim.R</text>
</g>
<!-- /test/examples/trait&#45;perception&#45;accuracy/smallest_k_sim.R&#45;&gt;prog7 -->
<g id="edge43" class="edge"><title>/test/examples/trait&#45;perception&#45;accuracy/smallest_k_sim.R&#45;&gt;prog7</title>
<path fill="none" stroke="#8888cc" d="M1045.92,-47.3239C1067.69,-50.8621 1089.57,-55.0154 1110.23,-59.8701 1238.54,-90.0085 1383.5,-145.392 1459.22,-176.036"/>
<polygon fill="#8888cc" stroke="#8888cc" points="1457.96,-179.305 1468.54,-179.828 1460.6,-172.82 1457.96,-179.305"/>
</g>
</g>
</svg>
