<?xml version="1.0" encoding="UTF-8" standalone="no"?>
<!DOCTYPE svg PUBLIC "-//W3C//DTD SVG 1.1//EN"
 "http://www.w3.org/Graphics/SVG/1.1/DTD/svg11.dtd">
<!-- Generated by graphviz version 2.38.0 (20140413.2041)
 -->
<!-- Title: G Pages: 1 -->
<svg width="3303pt" height="819pt"
 viewBox="0.00 0.00 3302.99 818.87" xmlns="http://www.w3.org/2000/svg" xmlns:xlink="http://www.w3.org/1999/xlink">
<g id="graph0" class="graph" transform="scale(1 1) rotate(0) translate(4 814.87)">
<title>G</title>
<polygon fill="white" stroke="none" points="-4,4 -4,-814.87 3298.99,-814.87 3298.99,4 -4,4"/>
<g id="clust1" class="cluster"><title>cluster_run0</title>
<polygon fill="none" stroke="black" points="431.924,-133.87 431.924,-802.87 2420.29,-802.87 2420.29,-133.87 431.924,-133.87"/>
<text text-anchor="middle" x="1426.11" y="-787.67" font-family="Times,serif" font-size="14.00">run0</text>
</g>
<!-- prog0 -->
<g id="node1" class="node"><title>prog0</title>
<path fill="black" stroke="black" d="M547.924,-559.87C547.924,-559.87 451.924,-559.87 451.924,-559.87 445.924,-559.87 439.924,-553.87 439.924,-547.87 439.924,-547.87 439.924,-535.87 439.924,-535.87 439.924,-529.87 445.924,-523.87 451.924,-523.87 451.924,-523.87 547.924,-523.87 547.924,-523.87 553.924,-523.87 559.924,-529.87 559.924,-535.87 559.924,-535.87 559.924,-547.87 559.924,-547.87 559.924,-553.87 553.924,-559.87 547.924,-559.87"/>
<text text-anchor="middle" x="499.924" y="-538.17" font-family="Times,serif" font-size="14.00" fill="white">/usr/local/bin/R (1)</text>
</g>
<!-- prog1 -->
<g id="node2" class="node"><title>prog1</title>
<path fill="black" stroke="black" d="M1218.35,-532.87C1218.35,-532.87 1144.35,-532.87 1144.35,-532.87 1138.35,-532.87 1132.35,-526.87 1132.35,-520.87 1132.35,-520.87 1132.35,-508.87 1132.35,-508.87 1132.35,-502.87 1138.35,-496.87 1144.35,-496.87 1144.35,-496.87 1218.35,-496.87 1218.35,-496.87 1224.35,-496.87 1230.35,-502.87 1230.35,-508.87 1230.35,-508.87 1230.35,-520.87 1230.35,-520.87 1230.35,-526.87 1224.35,-532.87 1218.35,-532.87"/>
<text text-anchor="middle" x="1181.35" y="-511.17" font-family="Times,serif" font-size="14.00" fill="white">/bin/uname (2)</text>
</g>
<!-- prog0&#45;&gt;prog1 -->
<g id="edge1" class="edge"><title>prog0&#45;&gt;prog1</title>
<path fill="none" stroke="black" d="M560.03,-539.521C688.909,-534.4 993.902,-522.279 1122.05,-517.187"/>
<polygon fill="black" stroke="black" points="1122.21,-520.683 1132.06,-516.789 1121.93,-513.689 1122.21,-520.683"/>
<text text-anchor="middle" x="1045.85" y="-524.67" font-family="Times,serif" font-size="14.00">fork+exec</text>
</g>
<!-- prog2 -->
<g id="node3" class="node"><title>prog2</title>
<path fill="black" stroke="black" d="M1229.35,-586.87C1229.35,-586.87 1133.35,-586.87 1133.35,-586.87 1127.35,-586.87 1121.35,-580.87 1121.35,-574.87 1121.35,-574.87 1121.35,-562.87 1121.35,-562.87 1121.35,-556.87 1127.35,-550.87 1133.35,-550.87 1133.35,-550.87 1229.35,-550.87 1229.35,-550.87 1235.35,-550.87 1241.35,-556.87 1241.35,-562.87 1241.35,-562.87 1241.35,-574.87 1241.35,-574.87 1241.35,-580.87 1235.35,-586.87 1229.35,-586.87"/>
<text text-anchor="middle" x="1181.35" y="-565.17" font-family="Times,serif" font-size="14.00" fill="white">/usr/local/bin/R (3)</text>
</g>
<!-- prog0&#45;&gt;prog2 -->
<g id="edge2" class="edge"><title>prog0&#45;&gt;prog2</title>
<path fill="none" stroke="black" d="M560.03,-544.219C685.263,-549.196 976.784,-560.78 1110.75,-566.104"/>
<polygon fill="black" stroke="black" points="1110.76,-569.607 1120.9,-566.507 1111.04,-562.613 1110.76,-569.607"/>
<text text-anchor="middle" x="1045.85" y="-568.67" font-family="Times,serif" font-size="14.00">fork</text>
</g>
<!-- prog5 -->
<g id="node6" class="node"><title>prog5</title>
<path fill="black" stroke="black" d="M1229.35,-686.87C1229.35,-686.87 1133.35,-686.87 1133.35,-686.87 1127.35,-686.87 1121.35,-680.87 1121.35,-674.87 1121.35,-674.87 1121.35,-662.87 1121.35,-662.87 1121.35,-656.87 1127.35,-650.87 1133.35,-650.87 1133.35,-650.87 1229.35,-650.87 1229.35,-650.87 1235.35,-650.87 1241.35,-656.87 1241.35,-662.87 1241.35,-662.87 1241.35,-674.87 1241.35,-674.87 1241.35,-680.87 1235.35,-686.87 1229.35,-686.87"/>
<text text-anchor="middle" x="1181.35" y="-665.17" font-family="Times,serif" font-size="14.00" fill="white">/usr/local/bin/R (6)</text>
</g>
<!-- prog0&#45;&gt;prog5 -->
<g id="edge5" class="edge"><title>prog0&#45;&gt;prog5</title>
<path fill="none" stroke="black" d="M560.03,-552.918C685.263,-576.327 976.784,-630.819 1110.75,-655.861"/>
<polygon fill="black" stroke="black" points="1110.42,-659.36 1120.9,-657.757 1111.71,-652.479 1110.42,-659.36"/>
<text text-anchor="middle" x="1045.85" y="-650.67" font-family="Times,serif" font-size="14.00">fork</text>
</g>
<!-- prog9 -->
<g id="node10" class="node"><title>prog9</title>
<path fill="black" stroke="black" d="M1258.85,-304.87C1258.85,-304.87 1103.85,-304.87 1103.85,-304.87 1097.85,-304.87 1091.85,-298.87 1091.85,-292.87 1091.85,-292.87 1091.85,-280.87 1091.85,-280.87 1091.85,-274.87 1097.85,-268.87 1103.85,-268.87 1103.85,-268.87 1258.85,-268.87 1258.85,-268.87 1264.85,-268.87 1270.85,-274.87 1270.85,-280.87 1270.85,-280.87 1270.85,-292.87 1270.85,-292.87 1270.85,-298.87 1264.85,-304.87 1258.85,-304.87"/>
<text text-anchor="middle" x="1181.35" y="-283.17" font-family="Times,serif" font-size="14.00" fill="white">/usr/local/lib/R/bin/exec/R (1)</text>
</g>
<!-- prog0&#45;&gt;prog9 -->
<g id="edge9" class="edge"><title>prog0&#45;&gt;prog9</title>
<path fill="none" stroke="black" d="M548.971,-523.837C670.75,-478.131 991.151,-357.879 1122.71,-308.503"/>
<polygon fill="black" stroke="black" points="1124.09,-311.723 1132.22,-304.932 1121.63,-305.169 1124.09,-311.723"/>
<text text-anchor="middle" x="1045.85" y="-346.67" font-family="Times,serif" font-size="14.00">exec</text>
</g>
<!-- prog3 -->
<g id="node4" class="node"><title>prog3</title>
<path fill="black" stroke="black" d="M1811.07,-555.87C1811.07,-555.87 1715.07,-555.87 1715.07,-555.87 1709.07,-555.87 1703.07,-549.87 1703.07,-543.87 1703.07,-543.87 1703.07,-531.87 1703.07,-531.87 1703.07,-525.87 1709.07,-519.87 1715.07,-519.87 1715.07,-519.87 1811.07,-519.87 1811.07,-519.87 1817.07,-519.87 1823.07,-525.87 1823.07,-531.87 1823.07,-531.87 1823.07,-543.87 1823.07,-543.87 1823.07,-549.87 1817.07,-555.87 1811.07,-555.87"/>
<text text-anchor="middle" x="1763.07" y="-534.17" font-family="Times,serif" font-size="14.00" fill="white">/usr/local/bin/R (4)</text>
</g>
<!-- prog2&#45;&gt;prog3 -->
<g id="edge3" class="edge"><title>prog2&#45;&gt;prog3</title>
<path fill="none" stroke="black" d="M1241.39,-560.095C1256.81,-558.082 1273.42,-556.158 1288.85,-554.87 1432.17,-542.903 1600.6,-539.353 1692.89,-538.304"/>
<polygon fill="black" stroke="black" points="1692.98,-541.804 1702.94,-538.197 1692.91,-534.804 1692.98,-541.804"/>
<text text-anchor="middle" x="1316.85" y="-558.67" font-family="Times,serif" font-size="14.00">fork</text>
</g>
<!-- prog4 -->
<g id="node5" class="node"><title>prog4</title>
<path fill="black" stroke="black" d="M1790.57,-609.87C1790.57,-609.87 1735.57,-609.87 1735.57,-609.87 1729.57,-609.87 1723.57,-603.87 1723.57,-597.87 1723.57,-597.87 1723.57,-585.87 1723.57,-585.87 1723.57,-579.87 1729.57,-573.87 1735.57,-573.87 1735.57,-573.87 1790.57,-573.87 1790.57,-573.87 1796.57,-573.87 1802.57,-579.87 1802.57,-585.87 1802.57,-585.87 1802.57,-597.87 1802.57,-597.87 1802.57,-603.87 1796.57,-609.87 1790.57,-609.87"/>
<text text-anchor="middle" x="1763.07" y="-588.17" font-family="Times,serif" font-size="14.00" fill="white">/bin/sed (5)</text>
</g>
<!-- prog2&#45;&gt;prog4 -->
<g id="edge4" class="edge"><title>prog2&#45;&gt;prog4</title>
<path fill="none" stroke="black" d="M1241.4,-571.213C1356.17,-575.766 1607.4,-585.734 1713.38,-589.938"/>
<polygon fill="black" stroke="black" points="1713.34,-593.439 1723.47,-590.339 1713.62,-586.445 1713.34,-593.439"/>
<text text-anchor="middle" x="1316.85" y="-579.67" font-family="Times,serif" font-size="14.00">fork+exec</text>
</g>
<!-- prog6 -->
<g id="node7" class="node"><title>prog6</title>
<path fill="black" stroke="black" d="M1811.07,-663.87C1811.07,-663.87 1715.07,-663.87 1715.07,-663.87 1709.07,-663.87 1703.07,-657.87 1703.07,-651.87 1703.07,-651.87 1703.07,-639.87 1703.07,-639.87 1703.07,-633.87 1709.07,-627.87 1715.07,-627.87 1715.07,-627.87 1811.07,-627.87 1811.07,-627.87 1817.07,-627.87 1823.07,-633.87 1823.07,-639.87 1823.07,-639.87 1823.07,-651.87 1823.07,-651.87 1823.07,-657.87 1817.07,-663.87 1811.07,-663.87"/>
<text text-anchor="middle" x="1763.07" y="-642.17" font-family="Times,serif" font-size="14.00" fill="white">/usr/local/bin/R (7)</text>
</g>
<!-- prog5&#45;&gt;prog6 -->
<g id="edge6" class="edge"><title>prog5&#45;&gt;prog6</title>
<path fill="none" stroke="black" d="M1241.44,-662.62C1256.86,-661.182 1273.46,-659.803 1288.85,-658.87 1432.37,-650.17 1600.72,-647.29 1692.95,-646.338"/>
<polygon fill="black" stroke="black" points="1693.03,-649.838 1703,-646.239 1692.96,-642.838 1693.03,-649.838"/>
<text text-anchor="middle" x="1316.85" y="-662.67" font-family="Times,serif" font-size="14.00">fork</text>
</g>
<!-- prog7 -->
<g id="node8" class="node"><title>prog7</title>
<path fill="black" stroke="black" d="M1790.57,-717.87C1790.57,-717.87 1735.57,-717.87 1735.57,-717.87 1729.57,-717.87 1723.57,-711.87 1723.57,-705.87 1723.57,-705.87 1723.57,-693.87 1723.57,-693.87 1723.57,-687.87 1729.57,-681.87 1735.57,-681.87 1735.57,-681.87 1790.57,-681.87 1790.57,-681.87 1796.57,-681.87 1802.57,-687.87 1802.57,-693.87 1802.57,-693.87 1802.57,-705.87 1802.57,-705.87 1802.57,-711.87 1796.57,-717.87 1790.57,-717.87"/>
<text text-anchor="middle" x="1763.07" y="-696.17" font-family="Times,serif" font-size="14.00" fill="white">/bin/sed (8)</text>
</g>
<!-- prog5&#45;&gt;prog7 -->
<g id="edge7" class="edge"><title>prog5&#45;&gt;prog7</title>
<path fill="none" stroke="black" d="M1241.4,-672.027C1356.17,-678.165 1607.4,-691.599 1713.38,-697.266"/>
<polygon fill="black" stroke="black" points="1713.3,-700.767 1723.47,-697.806 1713.67,-693.777 1713.3,-700.767"/>
<text text-anchor="middle" x="1316.85" y="-680.67" font-family="Times,serif" font-size="14.00">fork+exec</text>
</g>
<!-- prog8 -->
<g id="node9" class="node"><title>prog8</title>
<path fill="black" stroke="black" d="M1790.57,-771.87C1790.57,-771.87 1735.57,-771.87 1735.57,-771.87 1729.57,-771.87 1723.57,-765.87 1723.57,-759.87 1723.57,-759.87 1723.57,-747.87 1723.57,-747.87 1723.57,-741.87 1729.57,-735.87 1735.57,-735.87 1735.57,-735.87 1790.57,-735.87 1790.57,-735.87 1796.57,-735.87 1802.57,-741.87 1802.57,-747.87 1802.57,-747.87 1802.57,-759.87 1802.57,-759.87 1802.57,-765.87 1796.57,-771.87 1790.57,-771.87"/>
<text text-anchor="middle" x="1763.07" y="-750.17" font-family="Times,serif" font-size="14.00" fill="white">/bin/sed (9)</text>
</g>
<!-- prog5&#45;&gt;prog8 -->
<g id="edge8" class="edge"><title>prog5&#45;&gt;prog8</title>
<path fill="none" stroke="black" d="M1227.92,-686.925C1263.94,-700.358 1315.81,-717.862 1362.85,-726.87 1487.47,-750.737 1637.5,-754.291 1713.23,-754.368"/>
<polygon fill="black" stroke="black" points="1713.42,-757.868 1723.41,-754.358 1713.41,-750.868 1713.42,-757.868"/>
<text text-anchor="middle" x="1316.85" y="-725.67" font-family="Times,serif" font-size="14.00">fork+exec</text>
</g>
<!-- prog13 -->
<g id="node11" class="node"><title>prog13</title>
<path fill="black" stroke="black" d="M1791.07,-231.87C1791.07,-231.87 1735.07,-231.87 1735.07,-231.87 1729.07,-231.87 1723.07,-225.87 1723.07,-219.87 1723.07,-219.87 1723.07,-207.87 1723.07,-207.87 1723.07,-201.87 1729.07,-195.87 1735.07,-195.87 1735.07,-195.87 1791.07,-195.87 1791.07,-195.87 1797.07,-195.87 1803.07,-201.87 1803.07,-207.87 1803.07,-207.87 1803.07,-219.87 1803.07,-219.87 1803.07,-225.87 1797.07,-231.87 1791.07,-231.87"/>
<text text-anchor="middle" x="1763.07" y="-210.17" font-family="Times,serif" font-size="14.00" fill="white">/bin/sh (13)</text>
</g>
<!-- prog9&#45;&gt;prog13 -->
<g id="edge10" class="edge"><title>prog9&#45;&gt;prog13</title>
<path fill="none" stroke="black" d="M1240.98,-268.854C1256.48,-264.353 1273.24,-259.718 1288.85,-255.87 1440.07,-218.604 1625.66,-213.463 1712.66,-213.33"/>
<polygon fill="black" stroke="black" points="1712.76,-216.83 1722.77,-213.337 1712.77,-209.83 1712.76,-216.83"/>
<text text-anchor="middle" x="1316.85" y="-259.67" font-family="Times,serif" font-size="14.00">fork+exec</text>
</g>
<!-- prog15 -->
<g id="node13" class="node"><title>prog15</title>
<path fill="black" stroke="black" d="M1791.07,-285.87C1791.07,-285.87 1735.07,-285.87 1735.07,-285.87 1729.07,-285.87 1723.07,-279.87 1723.07,-273.87 1723.07,-273.87 1723.07,-261.87 1723.07,-261.87 1723.07,-255.87 1729.07,-249.87 1735.07,-249.87 1735.07,-249.87 1791.07,-249.87 1791.07,-249.87 1797.07,-249.87 1803.07,-255.87 1803.07,-261.87 1803.07,-261.87 1803.07,-273.87 1803.07,-273.87 1803.07,-279.87 1797.07,-285.87 1791.07,-285.87"/>
<text text-anchor="middle" x="1763.07" y="-264.17" font-family="Times,serif" font-size="14.00" fill="white">/bin/sh (15)</text>
</g>
<!-- prog9&#45;&gt;prog15 -->
<g id="edge12" class="edge"><title>prog9&#45;&gt;prog15</title>
<path fill="none" stroke="black" d="M1270.93,-278.047C1276.99,-277.599 1283.01,-277.199 1288.85,-276.87 1443.37,-268.158 1626.67,-267.394 1712.76,-267.598"/>
<polygon fill="black" stroke="black" points="1712.76,-271.098 1722.77,-267.627 1712.78,-264.098 1712.76,-271.098"/>
<text text-anchor="middle" x="1316.85" y="-280.67" font-family="Times,serif" font-size="14.00">fork+exec</text>
</g>
<!-- prog17 -->
<g id="node15" class="node"><title>prog17</title>
<path fill="black" stroke="black" d="M1791.07,-339.87C1791.07,-339.87 1735.07,-339.87 1735.07,-339.87 1729.07,-339.87 1723.07,-333.87 1723.07,-327.87 1723.07,-327.87 1723.07,-315.87 1723.07,-315.87 1723.07,-309.87 1729.07,-303.87 1735.07,-303.87 1735.07,-303.87 1791.07,-303.87 1791.07,-303.87 1797.07,-303.87 1803.07,-309.87 1803.07,-315.87 1803.07,-315.87 1803.07,-327.87 1803.07,-327.87 1803.07,-333.87 1797.07,-339.87 1791.07,-339.87"/>
<text text-anchor="middle" x="1763.07" y="-318.17" font-family="Times,serif" font-size="14.00" fill="white">/bin/sh (17)</text>
</g>
<!-- prog9&#45;&gt;prog17 -->
<g id="edge14" class="edge"><title>prog9&#45;&gt;prog17</title>
<path fill="none" stroke="black" d="M1271.03,-292.224C1394.66,-299.688 1614.66,-312.97 1712.63,-318.885"/>
<polygon fill="black" stroke="black" points="1712.65,-322.393 1722.85,-319.502 1713.08,-315.406 1712.65,-322.393"/>
<text text-anchor="middle" x="1316.85" y="-300.67" font-family="Times,serif" font-size="14.00">fork+exec</text>
</g>
<!-- prog19 -->
<g id="node17" class="node"><title>prog19</title>
<path fill="black" stroke="black" d="M1791.07,-393.87C1791.07,-393.87 1735.07,-393.87 1735.07,-393.87 1729.07,-393.87 1723.07,-387.87 1723.07,-381.87 1723.07,-381.87 1723.07,-369.87 1723.07,-369.87 1723.07,-363.87 1729.07,-357.87 1735.07,-357.87 1735.07,-357.87 1791.07,-357.87 1791.07,-357.87 1797.07,-357.87 1803.07,-363.87 1803.07,-369.87 1803.07,-369.87 1803.07,-381.87 1803.07,-381.87 1803.07,-387.87 1797.07,-393.87 1791.07,-393.87"/>
<text text-anchor="middle" x="1763.07" y="-372.17" font-family="Times,serif" font-size="14.00" fill="white">/bin/sh (19)</text>
</g>
<!-- prog9&#45;&gt;prog19 -->
<g id="edge16" class="edge"><title>prog9&#45;&gt;prog19</title>
<path fill="none" stroke="black" d="M1224.5,-304.898C1260.53,-319.44 1314.13,-339.035 1362.85,-348.87 1486.9,-373.913 1636.57,-376.987 1712.58,-376.677"/>
<polygon fill="black" stroke="black" points="1712.82,-380.175 1722.8,-376.612 1712.78,-373.175 1712.82,-380.175"/>
<text text-anchor="middle" x="1316.85" y="-348.67" font-family="Times,serif" font-size="14.00">fork+exec</text>
</g>
<!-- prog25 -->
<g id="node19" class="node"><title>prog25</title>
<path fill="black" stroke="black" d="M1791.07,-447.87C1791.07,-447.87 1735.07,-447.87 1735.07,-447.87 1729.07,-447.87 1723.07,-441.87 1723.07,-435.87 1723.07,-435.87 1723.07,-423.87 1723.07,-423.87 1723.07,-417.87 1729.07,-411.87 1735.07,-411.87 1735.07,-411.87 1791.07,-411.87 1791.07,-411.87 1797.07,-411.87 1803.07,-417.87 1803.07,-423.87 1803.07,-423.87 1803.07,-435.87 1803.07,-435.87 1803.07,-441.87 1797.07,-447.87 1791.07,-447.87"/>
<text text-anchor="middle" x="1763.07" y="-426.17" font-family="Times,serif" font-size="14.00" fill="white">/bin/sh (25)</text>
</g>
<!-- prog9&#45;&gt;prog25 -->
<g id="edge18" class="edge"><title>prog9&#45;&gt;prog25</title>
<path fill="none" stroke="black" d="M1201.76,-305.025C1232.86,-332.709 1297.09,-384.224 1362.85,-402.87 1484.93,-437.483 1636.04,-436.448 1712.6,-433.014"/>
<polygon fill="black" stroke="black" points="1713.08,-436.495 1722.9,-432.517 1712.75,-429.504 1713.08,-436.495"/>
<text text-anchor="middle" x="1316.85" y="-399.67" font-family="Times,serif" font-size="14.00">fork+exec</text>
</g>
<!-- prog27 -->
<g id="node21" class="node"><title>prog27</title>
<path fill="black" stroke="black" d="M1791.07,-177.87C1791.07,-177.87 1735.07,-177.87 1735.07,-177.87 1729.07,-177.87 1723.07,-171.87 1723.07,-165.87 1723.07,-165.87 1723.07,-153.87 1723.07,-153.87 1723.07,-147.87 1729.07,-141.87 1735.07,-141.87 1735.07,-141.87 1791.07,-141.87 1791.07,-141.87 1797.07,-141.87 1803.07,-147.87 1803.07,-153.87 1803.07,-153.87 1803.07,-165.87 1803.07,-165.87 1803.07,-171.87 1797.07,-177.87 1791.07,-177.87"/>
<text text-anchor="middle" x="1763.07" y="-156.17" font-family="Times,serif" font-size="14.00" fill="white">/bin/sh (27)</text>
</g>
<!-- prog9&#45;&gt;prog27 -->
<g id="edge20" class="edge"><title>prog9&#45;&gt;prog27</title>
<path fill="none" stroke="black" d="M1206.44,-268.716C1239.62,-244.885 1302.19,-204.069 1362.85,-186.87 1484.93,-152.257 1636.04,-153.292 1712.6,-156.726"/>
<polygon fill="black" stroke="black" points="1712.75,-160.237 1722.9,-157.223 1713.08,-153.245 1712.75,-160.237"/>
<text text-anchor="middle" x="1316.85" y="-221.67" font-family="Times,serif" font-size="14.00">fork+exec</text>
</g>
<!-- prog33 -->
<g id="node23" class="node"><title>prog33</title>
<path fill="black" stroke="black" d="M1791.07,-501.87C1791.07,-501.87 1735.07,-501.87 1735.07,-501.87 1729.07,-501.87 1723.07,-495.87 1723.07,-489.87 1723.07,-489.87 1723.07,-477.87 1723.07,-477.87 1723.07,-471.87 1729.07,-465.87 1735.07,-465.87 1735.07,-465.87 1791.07,-465.87 1791.07,-465.87 1797.07,-465.87 1803.07,-471.87 1803.07,-477.87 1803.07,-477.87 1803.07,-489.87 1803.07,-489.87 1803.07,-495.87 1797.07,-501.87 1791.07,-501.87"/>
<text text-anchor="middle" x="1763.07" y="-480.17" font-family="Times,serif" font-size="14.00" fill="white">/bin/sh (33)</text>
</g>
<!-- prog9&#45;&gt;prog33 -->
<g id="edge22" class="edge"><title>prog9&#45;&gt;prog33</title>
<path fill="none" stroke="black" d="M1193.19,-305.025C1217.57,-343.615 1281.01,-432.282 1362.85,-456.87 1484.37,-493.383 1635.72,-491.537 1712.47,-487.482"/>
<polygon fill="black" stroke="black" points="1713,-490.957 1722.79,-486.899 1712.61,-483.969 1713,-490.957"/>
<text text-anchor="middle" x="1316.85" y="-454.67" font-family="Times,serif" font-size="14.00">fork+exec</text>
</g>
<!-- prog14 -->
<g id="node12" class="node"><title>prog14</title>
<path fill="black" stroke="black" d="M2382.29,-231.87C2382.29,-231.87 2285.29,-231.87 2285.29,-231.87 2279.29,-231.87 2273.29,-225.87 2273.29,-219.87 2273.29,-219.87 2273.29,-207.87 2273.29,-207.87 2273.29,-201.87 2279.29,-195.87 2285.29,-195.87 2285.29,-195.87 2382.29,-195.87 2382.29,-195.87 2388.29,-195.87 2394.29,-201.87 2394.29,-207.87 2394.29,-207.87 2394.29,-219.87 2394.29,-219.87 2394.29,-225.87 2388.29,-231.87 2382.29,-231.87"/>
<text text-anchor="middle" x="2333.79" y="-210.17" font-family="Times,serif" font-size="14.00" fill="white">/usr/bin/which (14)</text>
</g>
<!-- prog13&#45;&gt;prog14 -->
<g id="edge11" class="edge"><title>prog13&#45;&gt;prog14</title>
<path fill="none" stroke="black" d="M1803.16,-213.87C1898.14,-213.87 2142.1,-213.87 2262.89,-213.87"/>
<polygon fill="black" stroke="black" points="2263.13,-217.37 2273.13,-213.87 2263.13,-210.37 2263.13,-217.37"/>
<text text-anchor="middle" x="2209.29" y="-217.67" font-family="Times,serif" font-size="14.00">fork+exec</text>
</g>
<!-- prog16 -->
<g id="node14" class="node"><title>prog16</title>
<path fill="black" stroke="black" d="M2373.79,-285.87C2373.79,-285.87 2293.79,-285.87 2293.79,-285.87 2287.79,-285.87 2281.79,-279.87 2281.79,-273.87 2281.79,-273.87 2281.79,-261.87 2281.79,-261.87 2281.79,-255.87 2287.79,-249.87 2293.79,-249.87 2293.79,-249.87 2373.79,-249.87 2373.79,-249.87 2379.79,-249.87 2385.79,-255.87 2385.79,-261.87 2385.79,-261.87 2385.79,-273.87 2385.79,-273.87 2385.79,-279.87 2379.79,-285.87 2373.79,-285.87"/>
<text text-anchor="middle" x="2333.79" y="-264.17" font-family="Times,serif" font-size="14.00" fill="white">/bin/uname (16)</text>
</g>
<!-- prog15&#45;&gt;prog16 -->
<g id="edge13" class="edge"><title>prog15&#45;&gt;prog16</title>
<path fill="none" stroke="black" d="M1803.16,-267.87C1900.36,-267.87 2153.58,-267.87 2271.15,-267.87"/>
<polygon fill="black" stroke="black" points="2271.42,-271.37 2281.42,-267.87 2271.42,-264.37 2271.42,-271.37"/>
<text text-anchor="middle" x="2209.29" y="-271.67" font-family="Times,serif" font-size="14.00">fork+exec</text>
</g>
<!-- prog18 -->
<g id="node16" class="node"><title>prog18</title>
<path fill="black" stroke="black" d="M2382.29,-339.87C2382.29,-339.87 2285.29,-339.87 2285.29,-339.87 2279.29,-339.87 2273.29,-333.87 2273.29,-327.87 2273.29,-327.87 2273.29,-315.87 2273.29,-315.87 2273.29,-309.87 2279.29,-303.87 2285.29,-303.87 2285.29,-303.87 2382.29,-303.87 2382.29,-303.87 2388.29,-303.87 2394.29,-309.87 2394.29,-315.87 2394.29,-315.87 2394.29,-327.87 2394.29,-327.87 2394.29,-333.87 2388.29,-339.87 2382.29,-339.87"/>
<text text-anchor="middle" x="2333.79" y="-318.17" font-family="Times,serif" font-size="14.00" fill="white">/usr/bin/which (18)</text>
</g>
<!-- prog17&#45;&gt;prog18 -->
<g id="edge15" class="edge"><title>prog17&#45;&gt;prog18</title>
<path fill="none" stroke="black" d="M1803.16,-321.87C1898.14,-321.87 2142.1,-321.87 2262.89,-321.87"/>
<polygon fill="black" stroke="black" points="2263.13,-325.37 2273.13,-321.87 2263.13,-318.37 2263.13,-325.37"/>
<text text-anchor="middle" x="2209.29" y="-325.67" font-family="Times,serif" font-size="14.00">fork+exec</text>
</g>
<!-- prog20 -->
<g id="node18" class="node"><title>prog20</title>
<path fill="black" stroke="black" d="M2400.29,-393.87C2400.29,-393.87 2267.29,-393.87 2267.29,-393.87 2261.29,-393.87 2255.29,-387.87 2255.29,-381.87 2255.29,-381.87 2255.29,-369.87 2255.29,-369.87 2255.29,-363.87 2261.29,-357.87 2267.29,-357.87 2267.29,-357.87 2400.29,-357.87 2400.29,-357.87 2406.29,-357.87 2412.29,-363.87 2412.29,-369.87 2412.29,-369.87 2412.29,-381.87 2412.29,-381.87 2412.29,-387.87 2406.29,-393.87 2400.29,-393.87"/>
<text text-anchor="middle" x="2333.79" y="-372.17" font-family="Times,serif" font-size="14.00" fill="white">/usr/local/bin/pandoc (20)</text>
</g>
<!-- prog19&#45;&gt;prog20 -->
<g id="edge17" class="edge"><title>prog19&#45;&gt;prog20</title>
<path fill="none" stroke="black" d="M1803.16,-375.87C1893.6,-375.87 2119.11,-375.87 2244.75,-375.87"/>
<polygon fill="black" stroke="black" points="2245.1,-379.37 2255.1,-375.87 2245.1,-372.37 2245.1,-379.37"/>
<text text-anchor="middle" x="2209.29" y="-379.67" font-family="Times,serif" font-size="14.00">fork+exec</text>
</g>
<!-- prog26 -->
<g id="node20" class="node"><title>prog26</title>
<path fill="black" stroke="black" d="M2376.29,-447.87C2376.29,-447.87 2291.29,-447.87 2291.29,-447.87 2285.29,-447.87 2279.29,-441.87 2279.29,-435.87 2279.29,-435.87 2279.29,-423.87 2279.29,-423.87 2279.29,-417.87 2285.29,-411.87 2291.29,-411.87 2291.29,-411.87 2376.29,-411.87 2376.29,-411.87 2382.29,-411.87 2388.29,-417.87 2388.29,-423.87 2388.29,-423.87 2388.29,-435.87 2388.29,-435.87 2388.29,-441.87 2382.29,-447.87 2376.29,-447.87"/>
<text text-anchor="middle" x="2333.79" y="-426.17" font-family="Times,serif" font-size="14.00" fill="white">/usr/bin/tput (26)</text>
</g>
<!-- prog25&#45;&gt;prog26 -->
<g id="edge19" class="edge"><title>prog25&#45;&gt;prog26</title>
<path fill="none" stroke="black" d="M1803.16,-429.87C1899.85,-429.87 2150.92,-429.87 2269.28,-429.87"/>
<polygon fill="black" stroke="black" points="2269.29,-433.37 2279.29,-429.87 2269.29,-426.37 2269.29,-433.37"/>
<text text-anchor="middle" x="2209.29" y="-433.67" font-family="Times,serif" font-size="14.00">fork+exec</text>
</g>
<!-- prog28 -->
<g id="node22" class="node"><title>prog28</title>
<path fill="black" stroke="black" d="M2400.29,-177.87C2400.29,-177.87 2267.29,-177.87 2267.29,-177.87 2261.29,-177.87 2255.29,-171.87 2255.29,-165.87 2255.29,-165.87 2255.29,-153.87 2255.29,-153.87 2255.29,-147.87 2261.29,-141.87 2267.29,-141.87 2267.29,-141.87 2400.29,-141.87 2400.29,-141.87 2406.29,-141.87 2412.29,-147.87 2412.29,-153.87 2412.29,-153.87 2412.29,-165.87 2412.29,-165.87 2412.29,-171.87 2406.29,-177.87 2400.29,-177.87"/>
<text text-anchor="middle" x="2333.79" y="-156.17" font-family="Times,serif" font-size="14.00" fill="white">/usr/local/bin/pandoc (28)</text>
</g>
<!-- prog27&#45;&gt;prog28 -->
<g id="edge21" class="edge"><title>prog27&#45;&gt;prog28</title>
<path fill="none" stroke="black" d="M1803.16,-159.87C1893.6,-159.87 2119.11,-159.87 2244.75,-159.87"/>
<polygon fill="black" stroke="black" points="2245.1,-163.37 2255.1,-159.87 2245.1,-156.37 2245.1,-163.37"/>
<text text-anchor="middle" x="2209.29" y="-163.67" font-family="Times,serif" font-size="14.00">fork+exec</text>
</g>
<!-- /test/examples/Density&#45;Dependence&#45;in&#45;Annual&#45;Plant&#45;Species&#45;in&#45;the&#45;San&#45;Joaquin&#45;Desert/results/index.html -->
<g id="node28" class="node"><title>/test/examples/Density&#45;Dependence&#45;in&#45;Annual&#45;Plant&#45;Species&#45;in&#45;the&#45;San&#45;Joaquin&#45;Desert/results/index.html</title>
<ellipse fill="#a3b4e0" stroke="black" cx="2872.14" cy="-159.87" rx="422.7" ry="26.7407"/>
<text text-anchor="middle" x="2872.14" y="-163.67" font-family="Times,serif" font-size="14.00" fill="#131c39">index.html</text>
<text text-anchor="middle" x="2872.14" y="-148.67" font-family="Times,serif" font-size="14.00" fill="#131c39">/test/examples/Density&#45;Dependence&#45;in&#45;Annual&#45;Plant&#45;Species&#45;in&#45;the&#45;San&#45;Joaquin&#45;Desert/results/index.html</text>
</g>
<!-- prog28&#45;&gt;/test/examples/Density&#45;Dependence&#45;in&#45;Annual&#45;Plant&#45;Species&#45;in&#45;the&#45;San&#45;Joaquin&#45;Desert/results/index.html -->
<g id="edge27" class="edge"><title>prog28&#45;&gt;/test/examples/Density&#45;Dependence&#45;in&#45;Annual&#45;Plant&#45;Species&#45;in&#45;the&#45;San&#45;Joaquin&#45;Desert/results/index.html</title>
<path fill="none" stroke="#000088" d="M2412.5,-159.87C2420.81,-159.87 2429.63,-159.87 2438.87,-159.87"/>
<polygon fill="#000088" stroke="#000088" points="2439.06,-163.37 2449.06,-159.87 2439.06,-156.37 2439.06,-163.37"/>
</g>
<!-- prog34 -->
<g id="node24" class="node"><title>prog34</title>
<path fill="black" stroke="black" d="M2363.29,-501.87C2363.29,-501.87 2304.29,-501.87 2304.29,-501.87 2298.29,-501.87 2292.29,-495.87 2292.29,-489.87 2292.29,-489.87 2292.29,-477.87 2292.29,-477.87 2292.29,-471.87 2298.29,-465.87 2304.29,-465.87 2304.29,-465.87 2363.29,-465.87 2363.29,-465.87 2369.29,-465.87 2375.29,-471.87 2375.29,-477.87 2375.29,-477.87 2375.29,-489.87 2375.29,-489.87 2375.29,-495.87 2369.29,-501.87 2363.29,-501.87"/>
<text text-anchor="middle" x="2333.79" y="-480.17" font-family="Times,serif" font-size="14.00" fill="white">/bin/rm (34)</text>
</g>
<!-- prog33&#45;&gt;prog34 -->
<g id="edge23" class="edge"><title>prog33&#45;&gt;prog34</title>
<path fill="none" stroke="black" d="M1803.16,-483.87C1903.55,-483.87 2170.36,-483.87 2282.27,-483.87"/>
<polygon fill="black" stroke="black" points="2282.29,-487.37 2292.29,-483.87 2282.29,-480.37 2282.29,-487.37"/>
<text text-anchor="middle" x="2209.29" y="-487.67" font-family="Times,serif" font-size="14.00">fork+exec</text>
</g>
<!-- /test/examples/Density&#45;Dependence&#45;in&#45;Annual&#45;Plant&#45;Species&#45;in&#45;the&#45;San&#45;Joaquin&#45;Desert/data/phytometer_data_trials_2018.csv -->
<g id="node25" class="node"><title>/test/examples/Density&#45;Dependence&#45;in&#45;Annual&#45;Plant&#45;Species&#45;in&#45;the&#45;San&#45;Joaquin&#45;Desert/data/phytometer_data_trials_2018.csv</title>
<ellipse fill="#a3b4e0" stroke="black" cx="499.924" cy="-98.8701" rx="499.849" ry="26.7407"/>
<text text-anchor="middle" x="499.924" y="-102.67" font-family="Times,serif" font-size="14.00" fill="#131c39">phytometer_data_trials_2018.csv</text>
<text text-anchor="middle" x="499.924" y="-87.6701" font-family="Times,serif" font-size="14.00" fill="#131c39">/test/examples/Density&#45;Dependence&#45;in&#45;Annual&#45;Plant&#45;Species&#45;in&#45;the&#45;San&#45;Joaquin&#45;Desert/data/phytometer_data_trials_2018.csv</text>
</g>
<!-- /test/examples/Density&#45;Dependence&#45;in&#45;Annual&#45;Plant&#45;Species&#45;in&#45;the&#45;San&#45;Joaquin&#45;Desert/data/phytometer_data_trials_2018.csv&#45;&gt;prog9 -->
<g id="edge25" class="edge"><title>/test/examples/Density&#45;Dependence&#45;in&#45;Annual&#45;Plant&#45;Species&#45;in&#45;the&#45;San&#45;Joaquin&#45;Desert/data/phytometer_data_trials_2018.csv&#45;&gt;prog9</title>
<path fill="none" stroke="#8888cc" d="M945.465,-111.165C964.076,-116.475 982.283,-122.671 999.849,-129.87 1068.98,-158.204 1130.09,-224.244 1160.31,-261.006"/>
<polygon fill="#8888cc" stroke="#8888cc" points="1157.61,-263.242 1166.62,-268.815 1163.06,-258.839 1157.61,-263.242"/>
</g>
<!-- /test/examples/Density&#45;Dependence&#45;in&#45;Annual&#45;Plant&#45;Species&#45;in&#45;the&#45;San&#45;Joaquin&#45;Desert/index.Rmd -->
<g id="node26" class="node"><title>/test/examples/Density&#45;Dependence&#45;in&#45;Annual&#45;Plant&#45;Species&#45;in&#45;the&#45;San&#45;Joaquin&#45;Desert/index.Rmd</title>
<ellipse fill="#a3b4e0" stroke="black" cx="499.924" cy="-26.8701" rx="395.96" ry="26.7407"/>
<text text-anchor="middle" x="499.924" y="-30.6701" font-family="Times,serif" font-size="14.00" fill="#131c39">index.Rmd</text>
<text text-anchor="middle" x="499.924" y="-15.6701" font-family="Times,serif" font-size="14.00" fill="#131c39">/test/examples/Density&#45;Dependence&#45;in&#45;Annual&#45;Plant&#45;Species&#45;in&#45;the&#45;San&#45;Joaquin&#45;Desert/index.Rmd</text>
</g>
<!-- /test/examples/Density&#45;Dependence&#45;in&#45;Annual&#45;Plant&#45;Species&#45;in&#45;the&#45;San&#45;Joaquin&#45;Desert/index.Rmd&#45;&gt;prog9 -->
<g id="edge24" class="edge"><title>/test/examples/Density&#45;Dependence&#45;in&#45;Annual&#45;Plant&#45;Species&#45;in&#45;the&#45;San&#45;Joaquin&#45;Desert/index.Rmd&#45;&gt;prog9</title>
<path fill="none" stroke="#8888cc" d="M895.508,-28.4794C931.68,-36.5661 967.022,-47.7327 999.849,-62.8701 1087.01,-103.064 1145.03,-209.154 1168.54,-259.547"/>
<polygon fill="#8888cc" stroke="#8888cc" points="1165.45,-261.2 1172.78,-268.847 1171.82,-258.296 1165.45,-261.2"/>
</g>
<!-- /test/examples/Density&#45;Dependence&#45;in&#45;Annual&#45;Plant&#45;Species&#45;in&#45;the&#45;San&#45;Joaquin&#45;Desert/phacelia.jpg -->
<g id="node27" class="node"><title>/test/examples/Density&#45;Dependence&#45;in&#45;Annual&#45;Plant&#45;Species&#45;in&#45;the&#45;San&#45;Joaquin&#45;Desert/phacelia.jpg</title>
<ellipse fill="#a3b4e0" stroke="black" cx="1763.07" cy="-96.8701" rx="400.445" ry="26.7407"/>
<text text-anchor="middle" x="1763.07" y="-100.67" font-family="Times,serif" font-size="14.00" fill="#131c39">phacelia.jpg</text>
<text text-anchor="middle" x="1763.07" y="-85.6701" font-family="Times,serif" font-size="14.00" fill="#131c39">/test/examples/Density&#45;Dependence&#45;in&#45;Annual&#45;Plant&#45;Species&#45;in&#45;the&#45;San&#45;Joaquin&#45;Desert/phacelia.jpg</text>
</g>
<!-- /test/examples/Density&#45;Dependence&#45;in&#45;Annual&#45;Plant&#45;Species&#45;in&#45;the&#45;San&#45;Joaquin&#45;Desert/phacelia.jpg&#45;&gt;prog28 -->
<g id="edge26" class="edge"><title>/test/examples/Density&#45;Dependence&#45;in&#45;Annual&#45;Plant&#45;Species&#45;in&#45;the&#45;San&#45;Joaquin&#45;Desert/phacelia.jpg&#45;&gt;prog28</title>
<path fill="none" stroke="#8888cc" d="M2039.85,-116.307C2081.29,-120.199 2123.46,-124.71 2163.29,-129.87 2189.97,-133.325 2218.84,-138.059 2245.06,-142.745"/>
<polygon fill="#8888cc" stroke="#8888cc" points="2244.51,-146.202 2254.97,-144.536 2245.75,-139.314 2244.51,-146.202"/>
</g>
</g>
</svg>
