<?xml version="1.0" encoding="UTF-8" standalone="no"?>
<!DOCTYPE svg PUBLIC "-//W3C//DTD SVG 1.1//EN"
 "http://www.w3.org/Graphics/SVG/1.1/DTD/svg11.dtd">
<!-- Generated by graphviz version 2.38.0 (20140413.2041)
 -->
<!-- Title: G Pages: 1 -->
<svg width="1175pt" height="409pt"
 viewBox="0.00 0.00 1175.11 408.87" xmlns="http://www.w3.org/2000/svg" xmlns:xlink="http://www.w3.org/1999/xlink">
<g id="graph0" class="graph" transform="scale(1 1) rotate(0) translate(4 404.871)">
<title>G</title>
<polygon fill="white" stroke="none" points="-4,4 -4,-404.871 1171.11,-404.871 1171.11,4 -4,4"/>
<g id="clust1" class="cluster"><title>cluster_run0</title>
<polygon fill="none" stroke="black" points="91.2056,-84.0009 91.2056,-267.001 868.31,-267.001 868.31,-84.0009 91.2056,-84.0009"/>
<text text-anchor="middle" x="479.758" y="-251.801" font-family="Times,serif" font-size="14.00">run0</text>
</g>
<!-- prog0 -->
<g id="node1" class="node"><title>prog0</title>
<path fill="black" stroke="black" d="M228.206,-182.001C228.206,-182.001 111.206,-182.001 111.206,-182.001 105.206,-182.001 99.2056,-176.001 99.2056,-170.001 99.2056,-170.001 99.2056,-158.001 99.2056,-158.001 99.2056,-152.001 105.206,-146.001 111.206,-146.001 111.206,-146.001 228.206,-146.001 228.206,-146.001 234.206,-146.001 240.206,-152.001 240.206,-158.001 240.206,-158.001 240.206,-170.001 240.206,-170.001 240.206,-176.001 234.206,-182.001 228.206,-182.001"/>
<text text-anchor="middle" x="169.706" y="-160.301" font-family="Times,serif" font-size="14.00" fill="white">/test/onestep/run.sh (1)</text>
</g>
<!-- prog1 -->
<g id="node2" class="node"><title>prog1</title>
<path fill="black" stroke="black" d="M594.406,-236.001C594.406,-236.001 466.406,-236.001 466.406,-236.001 460.406,-236.001 454.406,-230.001 454.406,-224.001 454.406,-224.001 454.406,-212.001 454.406,-212.001 454.406,-206.001 460.406,-200.001 466.406,-200.001 466.406,-200.001 594.406,-200.001 594.406,-200.001 600.406,-200.001 606.406,-206.001 606.406,-212.001 606.406,-212.001 606.406,-224.001 606.406,-224.001 606.406,-230.001 600.406,-236.001 594.406,-236.001"/>
<text text-anchor="middle" x="530.406" y="-214.301" font-family="Times,serif" font-size="14.00" fill="white">/test/onestep/step1.sh (2)</text>
</g>
<!-- prog0&#45;&gt;prog1 -->
<g id="edge1" class="edge"><title>prog0&#45;&gt;prog1</title>
<path fill="none" stroke="black" d="M240.292,-174.477C298.479,-183.236 381.71,-195.766 443.941,-205.135"/>
<polygon fill="black" stroke="black" points="443.721,-208.641 454.131,-206.669 444.763,-201.719 443.721,-208.641"/>
<text text-anchor="middle" x="385.411" y="-204.801" font-family="Times,serif" font-size="14.00">fork+exec</text>
</g>
<!-- prog3 -->
<g id="node4" class="node"><title>prog3</title>
<path fill="black" stroke="black" d="M594.406,-182.001C594.406,-182.001 466.406,-182.001 466.406,-182.001 460.406,-182.001 454.406,-176.001 454.406,-170.001 454.406,-170.001 454.406,-158.001 454.406,-158.001 454.406,-152.001 460.406,-146.001 466.406,-146.001 466.406,-146.001 594.406,-146.001 594.406,-146.001 600.406,-146.001 606.406,-152.001 606.406,-158.001 606.406,-158.001 606.406,-170.001 606.406,-170.001 606.406,-176.001 600.406,-182.001 594.406,-182.001"/>
<text text-anchor="middle" x="530.406" y="-160.301" font-family="Times,serif" font-size="14.00" fill="white">/test/onestep/step2.sh (4)</text>
</g>
<!-- prog0&#45;&gt;prog3 -->
<g id="edge3" class="edge"><title>prog0&#45;&gt;prog3</title>
<path fill="none" stroke="black" d="M240.292,-164.001C298.479,-164.001 381.71,-164.001 443.941,-164.001"/>
<polygon fill="black" stroke="black" points="444.131,-167.501 454.131,-164.001 444.131,-160.501 444.131,-167.501"/>
<text text-anchor="middle" x="385.411" y="-167.801" font-family="Times,serif" font-size="14.00">fork+exec</text>
</g>
<!-- prog5 -->
<g id="node6" class="node"><title>prog5</title>
<path fill="black" stroke="black" d="M591.406,-128.001C591.406,-128.001 469.406,-128.001 469.406,-128.001 463.406,-128.001 457.406,-122.001 457.406,-116.001 457.406,-116.001 457.406,-104.001 457.406,-104.001 457.406,-98.0009 463.406,-92.0009 469.406,-92.0009 469.406,-92.0009 591.406,-92.0009 591.406,-92.0009 597.406,-92.0009 603.406,-98.0009 603.406,-104.001 603.406,-104.001 603.406,-116.001 603.406,-116.001 603.406,-122.001 597.406,-128.001 591.406,-128.001"/>
<text text-anchor="middle" x="530.406" y="-106.301" font-family="Times,serif" font-size="14.00" fill="white">/test/onestep/plot.py (6)</text>
</g>
<!-- prog0&#45;&gt;prog5 -->
<g id="edge5" class="edge"><title>prog0&#45;&gt;prog5</title>
<path fill="none" stroke="black" d="M240.292,-153.525C299.444,-144.62 384.478,-131.819 447.02,-122.404"/>
<polygon fill="black" stroke="black" points="447.88,-125.814 457.247,-120.864 446.838,-118.892 447.88,-125.814"/>
<text text-anchor="middle" x="385.411" y="-139.801" font-family="Times,serif" font-size="14.00">fork+exec</text>
</g>
<!-- prog2 -->
<g id="node3" class="node"><title>prog2</title>
<path fill="black" stroke="black" d="M848.31,-236.001C848.31,-236.001 795.31,-236.001 795.31,-236.001 789.31,-236.001 783.31,-230.001 783.31,-224.001 783.31,-224.001 783.31,-212.001 783.31,-212.001 783.31,-206.001 789.31,-200.001 795.31,-200.001 795.31,-200.001 848.31,-200.001 848.31,-200.001 854.31,-200.001 860.31,-206.001 860.31,-212.001 860.31,-212.001 860.31,-224.001 860.31,-224.001 860.31,-230.001 854.31,-236.001 848.31,-236.001"/>
<text text-anchor="middle" x="821.81" y="-214.301" font-family="Times,serif" font-size="14.00" fill="white">/bin/cat (3)</text>
</g>
<!-- prog1&#45;&gt;prog2 -->
<g id="edge2" class="edge"><title>prog1&#45;&gt;prog2</title>
<path fill="none" stroke="black" d="M606.688,-218.001C659.205,-218.001 727.71,-218.001 772.921,-218.001"/>
<polygon fill="black" stroke="black" points="773.043,-221.501 783.043,-218.001 773.043,-214.501 773.043,-221.501"/>
<text text-anchor="middle" x="675.401" y="-221.801" font-family="Times,serif" font-size="14.00">fork+exec</text>
</g>
<!-- /test/onestep/output1.txt -->
<g id="node11" class="node"><title>/test/onestep/output1.txt</title>
<ellipse fill="#a3b4e0" stroke="black" cx="1063.16" cy="-183.001" rx="103.889" ry="26.7407"/>
<text text-anchor="middle" x="1063.16" y="-186.801" font-family="Times,serif" font-size="14.00" fill="#131c39">output1.txt</text>
<text text-anchor="middle" x="1063.16" y="-171.801" font-family="Times,serif" font-size="14.00" fill="#131c39">/test/onestep/output1.txt</text>
</g>
<!-- prog2&#45;&gt;/test/onestep/output1.txt -->
<g id="edge6" class="edge"><title>prog2&#45;&gt;/test/onestep/output1.txt</title>
<path fill="none" stroke="#000088" d="M860.473,-212.494C887.849,-208.49 926.259,-202.874 962.223,-197.615"/>
<polygon fill="#000088" stroke="#000088" points="962.902,-201.053 972.29,-196.143 961.889,-194.127 962.902,-201.053"/>
</g>
<!-- prog4 -->
<g id="node5" class="node"><title>prog4</title>
<path fill="black" stroke="black" d="M848.31,-182.001C848.31,-182.001 795.31,-182.001 795.31,-182.001 789.31,-182.001 783.31,-176.001 783.31,-170.001 783.31,-170.001 783.31,-158.001 783.31,-158.001 783.31,-152.001 789.31,-146.001 795.31,-146.001 795.31,-146.001 848.31,-146.001 848.31,-146.001 854.31,-146.001 860.31,-152.001 860.31,-158.001 860.31,-158.001 860.31,-170.001 860.31,-170.001 860.31,-176.001 854.31,-182.001 848.31,-182.001"/>
<text text-anchor="middle" x="821.81" y="-160.301" font-family="Times,serif" font-size="14.00" fill="white">/bin/cat (5)</text>
</g>
<!-- prog3&#45;&gt;prog4 -->
<g id="edge4" class="edge"><title>prog3&#45;&gt;prog4</title>
<path fill="none" stroke="black" d="M606.688,-164.001C659.205,-164.001 727.71,-164.001 772.921,-164.001"/>
<polygon fill="black" stroke="black" points="773.043,-167.501 783.043,-164.001 773.043,-160.501 773.043,-167.501"/>
<text text-anchor="middle" x="675.401" y="-167.801" font-family="Times,serif" font-size="14.00">fork+exec</text>
</g>
<!-- /test/onestep/output2.txt -->
<g id="node12" class="node"><title>/test/onestep/output2.txt</title>
<ellipse fill="#a3b4e0" stroke="black" cx="1063.16" cy="-53.0009" rx="103.889" ry="26.7407"/>
<text text-anchor="middle" x="1063.16" y="-56.8009" font-family="Times,serif" font-size="14.00" fill="#131c39">output2.txt</text>
<text text-anchor="middle" x="1063.16" y="-41.8009" font-family="Times,serif" font-size="14.00" fill="#131c39">/test/onestep/output2.txt</text>
</g>
<!-- prog4&#45;&gt;/test/onestep/output2.txt -->
<g id="edge8" class="edge"><title>prog4&#45;&gt;/test/onestep/output2.txt</title>
<path fill="none" stroke="#000088" d="M860.473,-146.535C898.451,-128.922 957.662,-101.463 1002.12,-80.8451"/>
<polygon fill="#000088" stroke="#000088" points="1003.77,-83.9375 1011.37,-76.5552 1000.83,-77.5872 1003.77,-83.9375"/>
</g>
<!-- /test/onestep/figure.pdf -->
<g id="node8" class="node"><title>/test/onestep/figure.pdf</title>
<ellipse fill="#a3b4e0" stroke="black" cx="821.81" cy="-49.0009" rx="100.318" ry="26.7407"/>
<text text-anchor="middle" x="821.81" y="-52.8009" font-family="Times,serif" font-size="14.00" fill="#131c39">figure.pdf</text>
<text text-anchor="middle" x="821.81" y="-37.8009" font-family="Times,serif" font-size="14.00" fill="#131c39">/test/onestep/figure.pdf</text>
</g>
<!-- prog5&#45;&gt;/test/onestep/figure.pdf -->
<g id="edge13" class="edge"><title>prog5&#45;&gt;/test/onestep/figure.pdf</title>
<path fill="none" stroke="#000088" d="M603.689,-94.7654C642.665,-86.55 691.086,-76.3439 732.305,-67.6559"/>
<polygon fill="#000088" stroke="#000088" points="733.281,-71.0271 742.344,-65.5398 731.837,-64.1776 733.281,-71.0271"/>
</g>
<!-- /root/.cache/matplotlib/fontlist&#45;v300.json -->
<g id="node7" class="node"><title>/root/.cache/matplotlib/fontlist&#45;v300.json</title>
<ellipse fill="#a3b4e0" stroke="black" cx="169.706" cy="-49.0009" rx="169.912" ry="26.7407"/>
<text text-anchor="middle" x="169.706" y="-52.8009" font-family="Times,serif" font-size="14.00" fill="#131c39">fontlist&#45;v300.json</text>
<text text-anchor="middle" x="169.706" y="-37.8009" font-family="Times,serif" font-size="14.00" fill="#131c39">/root/.cache/matplotlib/fontlist&#45;v300.json</text>
</g>
<!-- /root/.cache/matplotlib/fontlist&#45;v300.json&#45;&gt;prog5 -->
<g id="edge11" class="edge"><title>/root/.cache/matplotlib/fontlist&#45;v300.json&#45;&gt;prog5</title>
<path fill="none" stroke="#8888cc" d="M286.175,-68.6374C338.661,-77.563 399.542,-87.9163 447.265,-96.032"/>
<polygon fill="#8888cc" stroke="#8888cc" points="446.796,-99.5024 457.241,-97.7286 447.969,-92.6015 446.796,-99.5024"/>
</g>
<!-- /test/onestep/input1.txt -->
<g id="node9" class="node"><title>/test/onestep/input1.txt</title>
<ellipse fill="#a3b4e0" stroke="black" cx="530.406" cy="-374.001" rx="98.9899" ry="26.7407"/>
<text text-anchor="middle" x="530.406" y="-377.801" font-family="Times,serif" font-size="14.00" fill="#131c39">input1.txt</text>
<text text-anchor="middle" x="530.406" y="-362.801" font-family="Times,serif" font-size="14.00" fill="#131c39">/test/onestep/input1.txt</text>
</g>
<!-- /test/onestep/input1.txt&#45;&gt;prog2 -->
<g id="edge7" class="edge"><title>/test/onestep/input1.txt&#45;&gt;prog2</title>
<path fill="none" stroke="#8888cc" d="M593.908,-353.253C605.879,-348.662 618.173,-343.508 629.401,-338.001 687.429,-309.538 750.063,-267.996 787.329,-242.006"/>
<polygon fill="#8888cc" stroke="#8888cc" points="789.612,-244.68 795.787,-236.07 785.591,-238.95 789.612,-244.68"/>
</g>
<!-- /test/onestep/input2.txt -->
<g id="node10" class="node"><title>/test/onestep/input2.txt</title>
<ellipse fill="#a3b4e0" stroke="black" cx="530.406" cy="-302.001" rx="98.9899" ry="26.7407"/>
<text text-anchor="middle" x="530.406" y="-305.801" font-family="Times,serif" font-size="14.00" fill="#131c39">input2.txt</text>
<text text-anchor="middle" x="530.406" y="-290.801" font-family="Times,serif" font-size="14.00" fill="#131c39">/test/onestep/input2.txt</text>
</g>
<!-- /test/onestep/input2.txt&#45;&gt;prog4 -->
<g id="edge10" class="edge"><title>/test/onestep/input2.txt&#45;&gt;prog4</title>
<path fill="none" stroke="#8888cc" d="M613.227,-287.216C645.11,-277.701 679.627,-262.188 703.401,-237.001 718.471,-221.036 705.064,-205.666 721.401,-191.001 735.484,-178.359 754.91,-171.555 772.856,-167.923"/>
<polygon fill="#8888cc" stroke="#8888cc" points="773.662,-171.335 782.914,-166.173 772.461,-164.439 773.662,-171.335"/>
</g>
<!-- /test/onestep/output1.txt&#45;&gt;prog4 -->
<g id="edge9" class="edge"><title>/test/onestep/output1.txt&#45;&gt;prog4</title>
<path fill="none" stroke="#8888cc" d="M963.545,-175.172C931.462,-172.626 897.293,-169.913 870.659,-167.799"/>
<polygon fill="#8888cc" stroke="#8888cc" points="870.718,-164.293 860.473,-166.991 870.164,-171.271 870.718,-164.293"/>
</g>
<!-- /test/onestep/output2.txt&#45;&gt;prog5 -->
<g id="edge12" class="edge"><title>/test/onestep/output2.txt&#45;&gt;prog5</title>
<path fill="none" stroke="#8888cc" d="M1000.61,-31.4045C976.49,-24.0027 948.37,-16.6648 922.219,-13.0009 833.83,-0.616821 808.179,7.86966 721.401,-13.0009 662.977,-27.0521 602.291,-62.2561 565.679,-86.1559"/>
<polygon fill="#8888cc" stroke="#8888cc" points="563.309,-83.5278 556.905,-91.9688 567.175,-89.3632 563.309,-83.5278"/>
</g>
</g>
</svg>
